<?xml version="1.0" encoding="utf-8"?>
<!-- Generator: Adobe Illustrator 24.0.0, SVG Export Plug-In . SVG Version: 6.00 Build 0)  -->
<svg version="1.1"
	 id="svg2" inkscape:export-filename="J:\My Projects\citeproc-java\gh-pages\images\reader.png" inkscape:export-xdpi="90.016701" inkscape:export-ydpi="90.016701" inkscape:version="0.48.4 r9939" sodipodi:docname="reader.svg" xmlns:cc="http://creativecommons.org/ns#" xmlns:dc="http://purl.org/dc/elements/1.1/" xmlns:inkscape="http://www.inkscape.org/namespaces/inkscape" xmlns:rdf="http://www.w3.org/1999/02/22-rdf-syntax-ns#" xmlns:sodipodi="http://sodipodi.sourceforge.net/DTD/sodipodi-0.dtd" xmlns:svg="http://www.w3.org/2000/svg"
	 xmlns="http://www.w3.org/2000/svg" xmlns:xlink="http://www.w3.org/1999/xlink" x="0px" y="0px" viewBox="0 0 1851 434.9"
	 style="enable-background:new 0 0 1851 434.9;" xml:space="preserve">
<style type="text/css">
	.st0{fill:none;stroke:#2C3E50;stroke-width:10.6893;stroke-linecap:round;stroke-linejoin:round;stroke-miterlimit:6.1781;}
	.st1{fill:none;stroke:#2C3E50;stroke-width:10.6911;stroke-linecap:round;stroke-linejoin:round;stroke-miterlimit:6.8348;}
	.st2{fill:none;stroke:#2C3E50;stroke-width:10.6893;stroke-miterlimit:6.1781;}
	.st3{fill:#2C3E50;stroke:#2C3E50;stroke-width:10.6889;stroke-linecap:round;stroke-linejoin:round;stroke-miterlimit:5.9143;}
	.st4{enable-background:new    ;}
	.st5{fill:#2C3E50;}
</style>
<sodipodi:namedview  bordercolor="#666666" borderopacity="1.0" fit-margin-bottom="5" fit-margin-left="5" fit-margin-right="5" fit-margin-top="5" id="base" inkscape:current-layer="layer1" inkscape:cx="26.370489" inkscape:cy="314.7237" inkscape:document-units="px" inkscape:pageopacity="0.0" inkscape:pageshadow="2" inkscape:window-height="1017" inkscape:window-maximized="1" inkscape:window-width="1920" inkscape:window-x="-8" inkscape:window-y="-8" inkscape:zoom="0.78870185" pagecolor="#ffffff" showgrid="false">
	</sodipodi:namedview>
<g id="layer1" transform="translate(-134.3853,-405.98549)" inkscape:groupmode="layer" inkscape:label="Ebene 1">
	<g id="g3850" transform="matrix(1.1559288,0,0,1.1559288,-90.351533,-87.211688)">
		<path id="path3834" inkscape:connector-curvature="0" sodipodi:nodetypes="cc" class="st0" d="M354.4,671.6l20.1,101.6"/>
		
			<path id="path3836" sodipodi:cx="226.95522" sodipodi:cy="759.47583" sodipodi:rx="29.161844" sodipodi:ry="29.161844" sodipodi:type="arc" class="st1" d="
			M293,755.7c0,17.8-14.4,32.3-32.3,32.3c-17.8,0-32.3-14.4-32.3-32.3s14.4-32.3,32.3-32.3C278.6,723.5,293,737.9,293,755.7z"/>
		
			<path id="path3838" sodipodi:cx="226.95522" sodipodi:cy="759.47583" sodipodi:rx="29.161844" sodipodi:ry="29.161844" sodipodi:type="arc" class="st1" d="
			M483.3,727c0,17.8-14.4,32.3-32.3,32.3c-17.8,0-32.3-14.4-32.3-32.3c0-17.8,14.4-32.3,32.3-32.3
			C468.8,694.7,483.3,709.2,483.3,727z"/>
		<path id="path3840_1_" inkscape:connector-curvature="0" sodipodi:nodetypes="cc" class="st0" d="M268.9,583.8
			c-100.9,110.6-74,243.8-7.7,204.2"/>
		<path id="path3842_1_" inkscape:connector-curvature="0" sodipodi:nodetypes="cc" class="st0" d="M411.6,571.4
			c124,86.3,116.1,212.6,40,188.3"/>
		<path id="path3827" inkscape:connector-curvature="0" sodipodi:nodetypes="sssss" class="st2" d="M365.6,621.6
			c-42,18-81.5-1.5-105.8-58.5S247,460.3,289,442.3s108.9-7.4,121.9,53.2C424.1,557.2,406.5,604.1,365.6,621.6z"/>
		<path id="path3830" inkscape:connector-curvature="0" sodipodi:nodetypes="ccc" class="st0" d="M253.7,539
			c44.4-25.5,61.6-59.7,68.7-103.8c17.1,47.8,46.5,76.1,89.8,82.7"/>
		
			<path id="path3848" sodipodi:cx="338.53098" sodipodi:cy="514.13599" sodipodi:rx="5.0716248" sodipodi:ry="8.2413902" sodipodi:type="arc" class="st3" d="
			M320.5,545.6c1.3,4.2,4.4,6.9,7,6.1c2.6-0.8,3.6-4.8,2.3-9c-1.3-4.2-4.4-6.9-7-6.1S319.2,541.4,320.5,545.6z"/>
		
			<path id="path3844" sodipodi:cx="338.53098" sodipodi:cy="514.13599" sodipodi:rx="5.0716248" sodipodi:ry="8.2413902" sodipodi:type="arc" class="st3" d="
			M358.7,537.9c1.3,4.2,4.4,6.9,7,6.1c2.6-0.8,3.6-4.8,2.3-9c-1.3-4.2-4.4-6.9-7-6.1S357.5,533.7,358.7,537.9z"/>
		<path class="st0" d="M293,755.7c0-17.8-14.4-32.3-32.3-32.3c-1.9,0-3.8,0.2-5.7,0.5l-11.1-60.8l0,0c28.3-1,52.4-6.2,109.4,7
			c27.1-22.2,55.5-35.4,84.2-43.5l10.4,68.2c-16.3,1.6-29.1,15.3-29.1,32.1c0,4.9,1.1,9.5,3,13.7c-19.2,10.3-28.8,21.1-47.4,34.7
			c-27.8-8.1-55.2-16.7-81.5-16.9C293,757.6,293,756.7,293,755.7z"/>
	</g>
</g>
<g class="st4">
	<path class="st5" d="M480.3,165.8c-0.6,0.7-1.1,1.2-1.6,1.6c-0.5,0.4-1.3,0.6-2.3,0.6c-1,0-2-0.4-3.1-1.2c-1.1-0.8-2.5-1.6-4.1-2.5
		c-1.7-0.9-3.6-1.7-6-2.5c-2.3-0.8-5.2-1.2-8.6-1.2c-4.5,0-8.4,0.8-11.9,2.4c-3.4,1.6-6.3,3.9-8.6,6.9c-2.3,3-4,6.6-5.2,10.9
		c-1.2,4.3-1.8,9.1-1.8,14.5c0,5.5,0.6,10.5,1.9,14.8c1.2,4.3,3,8,5.3,10.9c2.3,3,5.1,5.2,8.4,6.7c3.3,1.5,7,2.3,11,2.3
		c3.9,0,7.2-0.5,9.7-1.4c2.6-1,4.7-2,6.4-3.1c1.7-1.1,3.1-2.2,4.2-3.1c1.1-1,2.3-1.4,3.5-1.4c1.5,0,2.6,0.6,3.5,1.7l5.2,6.7
		c-2.2,2.7-4.6,5-7.3,6.8c-2.7,1.9-5.6,3.4-8.6,4.6c-3.1,1.2-6.2,2.1-9.6,2.6c-3.3,0.6-6.7,0.8-10.1,0.8c-5.9,0-11.4-1.1-16.6-3.3
		c-5.1-2.2-9.6-5.4-13.4-9.5c-3.8-4.2-6.7-9.3-8.9-15.4c-2.2-6.1-3.3-13-3.3-20.7c0-7,1-13.6,2.9-19.5c2-6,4.9-11.1,8.7-15.5
		c3.8-4.3,8.6-7.7,14.2-10.2c5.6-2.5,12-3.7,19.3-3.7c6.8,0,12.8,1.1,17.9,3.3c5.2,2.2,9.8,5.3,13.8,9.3L480.3,165.8z"/>
	<path class="st5" d="M525.8,118.7c0,1.7-0.3,3.3-1,4.8c-0.7,1.5-1.6,2.9-2.8,4c-1.2,1.2-2.5,2.1-4.1,2.7c-1.6,0.7-3.2,1-4.9,1
		s-3.3-0.3-4.8-1c-1.5-0.7-2.8-1.6-4-2.7c-1.2-1.2-2.1-2.5-2.7-4c-0.7-1.5-1-3.1-1-4.8c0-1.7,0.3-3.4,1-4.9c0.7-1.5,1.6-2.9,2.7-4
		c1.2-1.2,2.5-2.1,4-2.7c1.5-0.7,3.1-1,4.8-1s3.3,0.3,4.9,1c1.6,0.7,2.9,1.6,4.1,2.7c1.2,1.2,2.1,2.5,2.8,4
		C525.4,115.3,525.8,116.9,525.8,118.7z M522.3,148v95h-18.2v-95H522.3z"/>
	<path class="st5" d="M578.5,244.5c-7.7,0-13.6-2.1-17.7-6.4c-4.1-4.3-6.2-10.4-6.2-18.4v-56.8h-11c-1.1,0-1.9-0.3-2.7-1
		c-0.7-0.7-1.1-1.6-1.1-2.9v-7.4l15.4-2.1l4.1-28.3c0.2-1.1,0.7-1.9,1.4-2.5c0.7-0.6,1.6-0.9,2.8-0.9h9.3v31.9h26.9v13.3h-26.9v55.6
		c0,3.7,0.9,6.5,2.8,8.4c1.8,1.8,4.2,2.8,7.1,2.8c1.7,0,3.1-0.2,4.3-0.7c1.2-0.4,2.3-0.9,3.1-1.4c0.9-0.5,1.6-1,2.2-1.4
		c0.6-0.4,1.2-0.7,1.7-0.7c0.6,0,1.1,0.1,1.4,0.4c0.3,0.3,0.7,0.7,1.1,1.4l5.4,8.8c-3,2.7-6.5,4.9-10.7,6.4
		C587.2,243.7,582.9,244.5,578.5,244.5z"/>
	<path class="st5" d="M693.8,229.4c-2.2,2.6-4.8,4.9-7.8,6.8c-2.9,1.9-6,3.4-9.3,4.6c-3.3,1.2-6.7,2.1-10.2,2.6
		c-3.5,0.6-7,0.8-10.4,0.8c-6.5,0-12.6-1.1-18.2-3.3c-5.6-2.2-10.4-5.5-14.5-9.7c-4.1-4.3-7.3-9.6-9.5-15.9
		c-2.3-6.3-3.4-13.6-3.4-21.8c0-6.6,1-12.8,3.1-18.5s5-10.7,8.8-14.9c3.8-4.2,8.5-7.6,14.1-10c5.5-2.4,11.8-3.6,18.7-3.6
		c5.8,0,11.1,1,16,2.8c4.9,1.9,9.1,4.7,12.7,8.3c3.6,3.6,6.3,8.1,8.4,13.4c2,5.3,3,11.3,3,18.1c0,2.8-0.3,4.7-0.9,5.7
		c-0.6,1-1.8,1.4-3.5,1.4h-62.2c0.2,5.7,1,10.6,2.4,14.8c1.4,4.2,3.4,7.7,5.9,10.5c2.5,2.8,5.5,4.9,9,6.3c3.5,1.4,7.4,2.1,11.7,2.1
		c4,0,7.6-0.5,10.5-1.4c3-0.9,5.5-1.9,7.7-3c2.1-1.1,4-2.1,5.4-3c1.5-0.9,2.8-1.4,3.9-1.4c1.5,0,2.6,0.6,3.5,1.7L693.8,229.4z
		 M678.8,184.9c0-3.6-0.5-6.9-1.5-10c-1-3.1-2.5-5.7-4.5-7.9c-2-2.2-4.4-4-7.3-5.2c-2.9-1.2-6.2-1.9-9.9-1.9
		c-7.7,0-13.7,2.2-18.1,6.6c-4.4,4.4-7.2,10.6-8.4,18.4H678.8z"/>
	<path class="st5" d="M732.1,162.2c2-2.4,4.1-4.5,6.4-6.5c2.3-2,4.7-3.6,7.3-5c2.6-1.4,5.4-2.5,8.4-3.3c3-0.8,6.1-1.2,9.5-1.2
		c5.4,0,10.3,1.1,14.7,3.2c4.4,2.1,8.1,5.2,11.3,9.3c3.1,4.1,5.5,9.2,7.2,15.2c1.7,6,2.6,13,2.6,20.8c0,7-0.9,13.6-2.8,19.6
		c-1.9,6-4.6,11.2-8.1,15.7c-3.5,4.4-7.8,7.9-12.9,10.4c-5.1,2.5-10.8,3.8-17.2,3.8c-5.7,0-10.5-0.9-14.6-2.8
		c-4.1-1.9-7.7-4.5-10.8-7.9v41.2h-18.2V148h10.9c2.6,0,4.1,1.2,4.8,3.6L732.1,162.2z M733.1,219.6c3,3.9,6.2,6.7,9.7,8.2
		c3.5,1.6,7.3,2.3,11.6,2.3c8.3,0,14.8-3,19.4-9c4.6-6,6.9-14.8,6.9-26.3c0-6-0.5-11.2-1.5-15.5c-1-4.3-2.5-7.8-4.5-10.5
		c-2-2.7-4.4-4.7-7.2-6c-2.9-1.3-6.1-1.9-9.7-1.9c-5.3,0-9.9,1.2-13.8,3.6c-3.9,2.4-7.5,5.7-10.8,10.1V219.6z"/>
	<path class="st5" d="M837.2,166.2c3.1-6.2,6.7-11.1,11-14.7c4.3-3.6,9.5-5.3,15.5-5.3c2.1,0,4,0.2,5.8,0.7c1.8,0.5,3.4,1.2,4.8,2.1
		l-1.2,13.7c-0.4,1.7-1.5,2.5-3.1,2.5c-0.9,0-2.2-0.2-3.9-0.5c-1.7-0.3-3.6-0.5-5.6-0.5c-2.9,0-5.5,0.4-7.8,1.3
		c-2.2,0.8-4.3,2.1-6,3.7c-1.8,1.7-3.3,3.7-4.7,6.1c-1.4,2.4-2.6,5.1-3.8,8.2V243H820v-95h10.5c2,0,3.3,0.4,4.1,1.1
		c0.7,0.7,1.2,2,1.5,3.8L837.2,166.2z"/>
	<path class="st5" d="M925.4,146.5c7,0,13.3,1.1,18.9,3.4c5.6,2.3,10.4,5.5,14.4,9.8c4,4.3,7,9.4,9.1,15.4c2.1,6,3.2,12.8,3.2,20.2
		s-1.1,14.2-3.2,20.3c-2.1,6-5.2,11.2-9.1,15.4c-4,4.2-8.8,7.5-14.4,9.8c-5.6,2.3-11.9,3.4-18.9,3.4c-7,0-13.4-1.1-19-3.4
		c-5.6-2.3-10.5-5.5-14.4-9.8c-4-4.2-7.1-9.4-9.2-15.4c-2.1-6-3.2-12.8-3.2-20.3s1.1-14.2,3.2-20.2s5.2-11.2,9.2-15.4
		c4-4.3,8.8-7.5,14.4-9.8C912,147.7,918.3,146.5,925.4,146.5z M925.4,230.1c9,0,15.7-3,20.1-9.1c4.4-6,6.6-14.5,6.6-25.5
		c0-11-2.2-19.5-6.6-25.6c-4.4-6.1-11.1-9.1-20.1-9.1c-9.1,0-15.9,3-20.3,9.1c-4.5,6.1-6.7,14.6-6.7,25.6c0,11,2.2,19.5,6.7,25.5
		C909.5,227.1,916.3,230.1,925.4,230.1z"/>
	<path class="st5" d="M1057.8,165.8c-0.6,0.7-1.1,1.2-1.6,1.6c-0.5,0.4-1.3,0.6-2.3,0.6c-1,0-2-0.4-3.1-1.2
		c-1.1-0.8-2.5-1.6-4.1-2.5c-1.7-0.9-3.6-1.7-6-2.5c-2.3-0.8-5.2-1.2-8.6-1.2c-4.5,0-8.4,0.8-11.9,2.4c-3.4,1.6-6.3,3.9-8.6,6.9
		c-2.3,3-4,6.6-5.2,10.9c-1.2,4.3-1.8,9.1-1.8,14.5c0,5.5,0.6,10.5,1.9,14.8c1.2,4.3,3,8,5.3,10.9c2.3,3,5.1,5.2,8.4,6.7
		c3.3,1.5,7,2.3,11,2.3c3.9,0,7.2-0.5,9.7-1.4c2.6-1,4.7-2,6.4-3.1c1.7-1.1,3.1-2.2,4.2-3.1c1.1-1,2.3-1.4,3.5-1.4
		c1.5,0,2.6,0.6,3.5,1.7l5.2,6.7c-2.2,2.7-4.6,5-7.3,6.8s-5.6,3.4-8.6,4.6c-3.1,1.2-6.2,2.1-9.6,2.6c-3.3,0.6-6.7,0.8-10.1,0.8
		c-5.9,0-11.4-1.1-16.6-3.3c-5.1-2.2-9.6-5.4-13.4-9.5c-3.8-4.2-6.7-9.3-8.9-15.4c-2.2-6.1-3.3-13-3.3-20.7c0-7,1-13.6,2.9-19.5
		c2-6,4.9-11.1,8.7-15.5c3.8-4.3,8.6-7.7,14.2-10.2c5.6-2.5,12-3.7,19.3-3.7c6.8,0,12.8,1.1,17.9,3.3c5.2,2.2,9.8,5.3,13.8,9.3
		L1057.8,165.8z"/>
	<path class="st5" d="M1078,179h46.7v15.5H1078V179z"/>
	<path class="st5" d="M1168,148V249c0,3.9-0.5,7.6-1.5,11c-1,3.4-2.6,6.4-4.9,8.9c-2.2,2.5-5.1,4.5-8.6,5.9
		c-3.5,1.4-7.8,2.1-12.8,2.1c-2.1,0-3.9-0.2-5.7-0.5c-1.7-0.3-3.4-0.7-5.2-1.3l0.7-9.9c0.2-1.2,0.8-1.8,1.6-2
		c0.8-0.1,2.4-0.2,4.8-0.2c4.8,0,8.2-1.1,10.2-3.3c2-2.2,3-5.8,3-10.8V148H1168z M1171.5,118.7c0,1.7-0.3,3.3-1,4.8
		c-0.7,1.5-1.6,2.9-2.8,4c-1.2,1.2-2.5,2.1-4.1,2.7c-1.5,0.7-3.2,1-4.9,1c-1.7,0-3.3-0.3-4.8-1s-2.8-1.6-4-2.7
		c-1.2-1.2-2.1-2.5-2.7-4c-0.7-1.5-1-3.1-1-4.8c0-1.7,0.3-3.4,1-4.9c0.7-1.5,1.6-2.9,2.7-4c1.2-1.2,2.5-2.1,4-2.7s3.1-1,4.8-1
		c1.7,0,3.4,0.3,4.9,1c1.5,0.7,2.9,1.6,4.1,2.7c1.2,1.2,2.1,2.5,2.8,4C1171.1,115.3,1171.5,116.9,1171.5,118.7z"/>
	<path class="st5" d="M1192,161.3c5.3-5,11-8.8,17.2-11.3c6.2-2.5,13-3.7,20.4-3.7c5.4,0,10.2,0.9,14.4,2.7
		c4.2,1.8,7.7,4.3,10.6,7.4c2.9,3.2,5,7,6.5,11.4c1.5,4.4,2.2,9.3,2.2,14.7V243h-8.1c-1.8,0-3.2-0.3-4.1-0.9
		c-0.9-0.6-1.7-1.7-2.2-3.3l-2-8.3c-2.4,2.2-4.8,4.2-7.2,5.9c-2.4,1.7-4.8,3.2-7.4,4.4c-2.6,1.2-5.3,2.1-8.3,2.8
		c-2.9,0.6-6.2,0.9-9.7,0.9c-3.7,0-7.2-0.5-10.5-1.5c-3.3-1-6.1-2.6-8.6-4.7c-2.4-2.1-4.3-4.8-5.7-7.9c-1.4-3.2-2.1-6.9-2.1-11.1
		c0-3.7,1-7.3,3-10.8c2-3.5,5.3-6.6,9.9-9.3c4.6-2.7,10.6-5,17.9-6.7c7.4-1.7,16.5-2.7,27.2-3v-6.9c0-7.2-1.5-12.5-4.6-16.1
		c-3.1-3.6-7.5-5.3-13.5-5.3c-4,0-7.3,0.5-10,1.5c-2.7,1-5,2.1-7,3.3c-2,1.2-3.7,2.3-5.1,3.3c-1.5,1-3,1.5-4.5,1.5
		c-1.2,0-2.3-0.3-3.2-1c-0.9-0.7-1.6-1.5-2.2-2.4L1192,161.3z M1245.5,200.8c-7.4,0.2-13.7,0.8-18.9,1.7c-5.2,0.9-9.4,2.1-12.6,3.6
		c-3.2,1.5-5.6,3.3-7,5.3c-1.4,2-2.1,4.3-2.1,6.8c0,2.4,0.4,4.4,1.2,6.1c0.8,1.7,1.8,3.1,3.2,4.2c1.3,1.1,2.9,1.9,4.7,2.4
		c1.8,0.5,3.8,0.7,5.9,0.7c2.8,0,5.4-0.3,7.7-0.8c2.3-0.6,4.5-1.4,6.6-2.4c2.1-1,4-2.3,5.9-3.8s3.7-3.2,5.5-5.1V200.8z"/>
	<path class="st5" d="M1368.2,148l-38.5,95h-16.4l-38.5-95h15c1.4,0,2.6,0.3,3.6,1s1.6,1.6,1.9,2.6l22.7,58.3
		c0.8,2.4,1.5,4.8,2.1,7.2c0.6,2.4,1.1,4.8,1.6,7.1c0.5-2.4,1.1-4.7,1.7-7.1c0.6-2.4,1.4-4.8,2.2-7.3l23-58.3c0.4-1.1,1-1.9,2-2.6
		s2.1-1,3.4-1H1368.2z"/>
	<path class="st5" d="M1378.2,161.3c5.3-5,11-8.8,17.2-11.3c6.2-2.5,13-3.7,20.4-3.7c5.4,0,10.2,0.9,14.4,2.7
		c4.2,1.8,7.7,4.3,10.6,7.4c2.9,3.2,5,7,6.5,11.4c1.5,4.4,2.2,9.3,2.2,14.7V243h-8.1c-1.8,0-3.2-0.3-4.1-0.9
		c-0.9-0.6-1.7-1.7-2.2-3.3l-2-8.3c-2.4,2.2-4.8,4.2-7.2,5.9c-2.4,1.7-4.8,3.2-7.4,4.4c-2.6,1.2-5.3,2.1-8.3,2.8
		c-2.9,0.6-6.2,0.9-9.7,0.9c-3.7,0-7.2-0.5-10.5-1.5c-3.3-1-6.1-2.6-8.6-4.7c-2.4-2.1-4.3-4.8-5.7-7.9c-1.4-3.2-2.1-6.9-2.1-11.1
		c0-3.7,1-7.3,3-10.8c2-3.5,5.3-6.6,9.9-9.3c4.6-2.7,10.6-5,17.9-6.7c7.4-1.7,16.5-2.7,27.2-3v-6.9c0-7.2-1.5-12.5-4.6-16.1
		c-3.1-3.6-7.5-5.3-13.5-5.3c-4,0-7.3,0.5-10,1.5c-2.7,1-5,2.1-7,3.3c-2,1.2-3.7,2.3-5.1,3.3c-1.5,1-3,1.5-4.5,1.5
		c-1.2,0-2.3-0.3-3.2-1c-0.9-0.7-1.6-1.5-2.2-2.4L1378.2,161.3z M1431.6,200.8c-7.4,0.2-13.7,0.8-18.9,1.7
		c-5.2,0.9-9.4,2.1-12.6,3.6c-3.2,1.5-5.6,3.3-7,5.3c-1.4,2-2.1,4.3-2.1,6.8c0,2.4,0.4,4.4,1.2,6.1c0.8,1.7,1.8,3.1,3.2,4.2
		c1.3,1.1,2.9,1.9,4.7,2.4c1.8,0.5,3.8,0.7,5.9,0.7c2.8,0,5.4-0.3,7.7-0.8c2.3-0.6,4.5-1.4,6.6-2.4c2.1-1,4-2.3,5.9-3.8
		s3.7-3.2,5.5-5.1V200.8z"/>
</g>
<g class="st4">
	<path class="st5" d="M450.3,337.2H445c-0.6,0-1.1-0.2-1.5-0.5c-0.4-0.3-0.7-0.7-0.8-1.2l-4.1-10.8h-20.6l-4.1,10.8
		c-0.2,0.4-0.4,0.8-0.8,1.1c-0.4,0.3-0.9,0.5-1.5,0.5h-5.3l18.6-46.7h7L450.3,337.2z M436.6,319.8l-6.9-18.1c-0.5-1.2-1-2.8-1.5-4.7
		c-0.2,0.9-0.5,1.8-0.7,2.6c-0.2,0.8-0.5,1.5-0.7,2.1l-6.9,18.1H436.6z"/>
	<path class="st5" d="M503,327.1c0.4,0,0.7,0.2,1,0.5l2.7,3c-1.9,2.3-4.2,4-7,5.2c-2.7,1.2-6,1.9-9.9,1.9c-3.4,0-6.4-0.6-9.2-1.8
		c-2.7-1.2-5.1-2.8-7-4.9c-1.9-2.1-3.4-4.6-4.5-7.6c-1.1-2.9-1.6-6.2-1.6-9.7c0-3.5,0.6-6.7,1.7-9.7c1.1-2.9,2.7-5.4,4.7-7.6
		c2-2.1,4.4-3.7,7.2-4.9s5.9-1.8,9.3-1.8c3.3,0,6.3,0.5,8.9,1.6c2.6,1.1,4.8,2.5,6.7,4.3l-2.3,3.2c-0.2,0.2-0.3,0.4-0.6,0.6
		c-0.2,0.2-0.5,0.2-0.9,0.2c-0.4,0-0.9-0.2-1.4-0.6c-0.6-0.4-1.3-0.9-2.2-1.4s-2-1-3.3-1.4c-1.3-0.4-3-0.6-4.9-0.6
		c-2.3,0-4.4,0.4-6.4,1.2c-1.9,0.8-3.6,2-5,3.5c-1.4,1.5-2.5,3.4-3.3,5.6c-0.8,2.2-1.2,4.7-1.2,7.5c0,2.8,0.4,5.4,1.2,7.6
		c0.8,2.2,1.9,4.1,3.3,5.6c1.4,1.5,3.1,2.7,5,3.5c1.9,0.8,4,1.2,6.2,1.2c1.3,0,2.6-0.1,3.6-0.2s2.1-0.4,3-0.7s1.8-0.7,2.6-1.3
		c0.8-0.5,1.6-1.1,2.4-1.8c0.2-0.2,0.4-0.3,0.6-0.4S502.8,327.1,503,327.1z"/>
	<path class="st5" d="M520.3,293.9c0,0.6-0.1,1.1-0.4,1.7c-0.2,0.5-0.6,1-1,1.4c-0.4,0.4-0.9,0.7-1.4,0.9c-0.5,0.2-1.1,0.3-1.7,0.3
		c-0.6,0-1.1-0.1-1.7-0.3c-0.5-0.2-1-0.5-1.4-0.9c-0.4-0.4-0.7-0.9-0.9-1.4c-0.2-0.5-0.3-1.1-0.3-1.7c0-0.6,0.1-1.2,0.3-1.7
		c0.2-0.5,0.5-1,0.9-1.4c0.4-0.4,0.9-0.7,1.4-0.9c0.5-0.2,1.1-0.3,1.7-0.3c0.6,0,1.1,0.1,1.7,0.3c0.5,0.2,1,0.5,1.4,0.9
		s0.7,0.9,1,1.4C520.2,292.7,520.3,293.3,520.3,293.9z M519.1,304.1v33.1h-6.3v-33.1H519.1z"/>
	<path class="st5" d="M538.7,337.7c-2.7,0-4.7-0.7-6.2-2.2c-1.4-1.5-2.2-3.6-2.2-6.4v-19.8h-3.8c-0.4,0-0.7-0.1-0.9-0.3
		c-0.2-0.2-0.4-0.6-0.4-1v-2.6l5.4-0.7l1.4-9.9c0.1-0.4,0.3-0.7,0.5-0.9c0.2-0.2,0.6-0.3,1-0.3h3.2v11.1h9.4v4.6h-9.4v19.4
		c0,1.3,0.3,2.3,1,2.9c0.6,0.6,1.5,1,2.5,1c0.6,0,1.1-0.1,1.5-0.2c0.4-0.2,0.8-0.3,1.1-0.5c0.3-0.2,0.6-0.4,0.8-0.5
		c0.2-0.2,0.4-0.2,0.6-0.2c0.2,0,0.4,0,0.5,0.1c0.1,0.1,0.2,0.3,0.4,0.5l1.9,3.1c-1,1-2.3,1.7-3.7,2.2
		C541.7,337.4,540.2,337.7,538.7,337.7z"/>
	<path class="st5" d="M551,308.7c1.8-1.8,3.8-3.1,6-3.9c2.2-0.9,4.5-1.3,7.1-1.3c1.9,0,3.6,0.3,5,0.9s2.7,1.5,3.7,2.6
		c1,1.1,1.8,2.4,2.3,4c0.5,1.5,0.8,3.2,0.8,5.1v21.1H573c-0.6,0-1.1-0.1-1.4-0.3c-0.3-0.2-0.6-0.6-0.8-1.2l-0.7-2.9
		c-0.8,0.8-1.7,1.5-2.5,2.1c-0.8,0.6-1.7,1.1-2.6,1.5c-0.9,0.4-1.9,0.7-2.9,1c-1,0.2-2.1,0.3-3.4,0.3c-1.3,0-2.5-0.2-3.7-0.5
		c-1.1-0.4-2.1-0.9-3-1.6c-0.8-0.7-1.5-1.7-2-2.8s-0.7-2.4-0.7-3.9c0-1.3,0.4-2.6,1.1-3.8c0.7-1.2,1.9-2.3,3.4-3.2
		c1.6-1,3.7-1.7,6.2-2.3c2.6-0.6,5.7-1,9.5-1v-2.4c0-2.5-0.5-4.4-1.6-5.6c-1.1-1.2-2.6-1.9-4.7-1.9c-1.4,0-2.6,0.2-3.5,0.5
		c-0.9,0.3-1.8,0.7-2.4,1.2c-0.7,0.4-1.3,0.8-1.8,1.2c-0.5,0.3-1,0.5-1.6,0.5c-0.4,0-0.8-0.1-1.1-0.4c-0.3-0.2-0.6-0.5-0.8-0.8
		L551,308.7z M569.7,322.5c-2.6,0.1-4.8,0.3-6.6,0.6c-1.8,0.3-3.3,0.7-4.4,1.3c-1.1,0.5-1.9,1.1-2.4,1.8c-0.5,0.7-0.7,1.5-0.7,2.4
		c0,0.8,0.1,1.5,0.4,2.1c0.3,0.6,0.6,1.1,1.1,1.5c0.5,0.4,1,0.7,1.6,0.8c0.6,0.2,1.3,0.3,2.1,0.3c1,0,1.9-0.1,2.7-0.3
		c0.8-0.2,1.6-0.5,2.3-0.8c0.7-0.4,1.4-0.8,2.1-1.3c0.7-0.5,1.3-1.1,1.9-1.8V322.5z"/>
	<path class="st5" d="M615.3,337.2h-6.4v-27.9h-16.6v19.4c0,1.3,0.3,2.3,1,2.9c0.6,0.6,1.5,1,2.5,1c0.6,0,1.1-0.1,1.5-0.2
		c0.4-0.2,0.8-0.3,1.1-0.5c0.3-0.2,0.6-0.4,0.8-0.5c0.2-0.2,0.4-0.2,0.6-0.2c0.2,0,0.4,0,0.5,0.1c0.1,0.1,0.2,0.3,0.4,0.5l1.9,3.1
		c-1,1-2.3,1.7-3.7,2.2c-1.4,0.5-2.9,0.8-4.5,0.8c-2.7,0-4.7-0.7-6.2-2.2c-1.4-1.5-2.2-3.6-2.2-6.4v-19.8h-3.8
		c-0.4,0-0.7-0.1-0.9-0.3c-0.2-0.2-0.4-0.6-0.4-1v-2.6l5.4-0.7l1.4-9.9c0.1-0.4,0.3-0.7,0.5-0.9c0.2-0.2,0.6-0.3,1-0.3h3.2v11.1h23
		V337.2z M616.8,293.7c0,0.6-0.1,1.1-0.4,1.7c-0.2,0.5-0.6,1-1,1.4c-0.4,0.4-0.9,0.7-1.4,0.9c-0.5,0.2-1.1,0.3-1.7,0.3
		c-0.6,0-1.1-0.1-1.7-0.3c-0.5-0.2-1-0.5-1.4-0.9c-0.4-0.4-0.7-0.9-0.9-1.4c-0.2-0.5-0.3-1.1-0.3-1.7c0-0.6,0.1-1.2,0.3-1.7
		c0.2-0.5,0.5-1,0.9-1.4c0.4-0.4,0.9-0.7,1.4-0.9c0.5-0.2,1.1-0.3,1.7-0.3c0.6,0,1.1,0.1,1.7,0.3c0.5,0.2,1,0.5,1.4,0.9
		c0.4,0.4,0.7,0.9,1,1.4C616.6,292.5,616.8,293.1,616.8,293.7z"/>
	<path class="st5" d="M638.6,303.6c2.4,0,4.6,0.4,6.6,1.2c2,0.8,3.6,1.9,5,3.4c1.4,1.5,2.4,3.3,3.2,5.4c0.7,2.1,1.1,4.4,1.1,7
		c0,2.6-0.4,5-1.1,7.1c-0.7,2.1-1.8,3.9-3.2,5.4c-1.4,1.5-3,2.6-5,3.4s-4.2,1.2-6.6,1.2c-2.5,0-4.7-0.4-6.6-1.2
		c-2-0.8-3.6-1.9-5-3.4c-1.4-1.5-2.5-3.3-3.2-5.4s-1.1-4.5-1.1-7.1c0-2.6,0.4-5,1.1-7c0.7-2.1,1.8-3.9,3.2-5.4
		c1.4-1.5,3.1-2.6,5-3.4C634,304,636.2,303.6,638.6,303.6z M638.6,332.7c3.1,0,5.5-1.1,7-3.2s2.3-5.1,2.3-8.9s-0.8-6.8-2.3-8.9
		s-3.9-3.2-7-3.2c-3.2,0-5.5,1.1-7.1,3.2s-2.3,5.1-2.3,8.9s0.8,6.8,2.3,8.9S635.5,332.7,638.6,332.7z"/>
	<path class="st5" d="M667.5,308.7c0.7-0.8,1.5-1.5,2.2-2.1c0.8-0.6,1.6-1.2,2.5-1.6s1.8-0.8,2.8-1c1-0.2,2.1-0.4,3.2-0.4
		c1.8,0,3.4,0.3,4.8,0.9c1.4,0.6,2.5,1.5,3.5,2.6c0.9,1.1,1.6,2.4,2.1,4c0.5,1.5,0.7,3.2,0.7,5.1v21.1H683v-21.1
		c0-2.4-0.5-4.2-1.6-5.5c-1.1-1.3-2.7-2-5-2c-1.6,0-3.2,0.4-4.6,1.2c-1.4,0.8-2.7,1.8-4,3.1v24.2h-6.3v-33.1h3.8
		c0.9,0,1.4,0.4,1.7,1.3L667.5,308.7z"/>
	<path class="st5" d="M739.9,298c-0.2,0.4-0.4,0.6-0.7,0.8c-0.2,0.2-0.5,0.3-0.9,0.3c-0.4,0-0.8-0.2-1.3-0.5
		c-0.5-0.4-1.1-0.8-1.9-1.2c-0.7-0.4-1.6-0.8-2.7-1.2c-1-0.4-2.3-0.5-3.7-0.5c-1.4,0-2.6,0.2-3.6,0.5c-1,0.4-1.9,0.8-2.6,1.5
		c-0.7,0.6-1.2,1.3-1.6,2.2c-0.4,0.8-0.5,1.7-0.5,2.7c0,1.3,0.3,2.3,1,3.1c0.6,0.8,1.5,1.5,2.5,2.1s2.2,1.1,3.5,1.5
		c1.3,0.4,2.7,0.9,4.1,1.4c1.4,0.5,2.7,1,4.1,1.6c1.3,0.6,2.5,1.4,3.5,2.3c1,0.9,1.9,2,2.5,3.4c0.6,1.3,1,3,1,4.9
		c0,2.1-0.4,4-1.1,5.8s-1.7,3.4-3.1,4.7c-1.3,1.3-3,2.4-5,3.2c-2,0.8-4.2,1.2-6.7,1.2c-1.5,0-3-0.1-4.4-0.4s-2.7-0.7-4-1.2
		c-1.3-0.5-2.4-1.2-3.5-1.9c-1.1-0.7-2.1-1.6-2.9-2.5l2-3.3c0.2-0.3,0.4-0.5,0.7-0.7c0.3-0.2,0.6-0.3,0.9-0.3c0.5,0,1,0.2,1.6,0.7
		c0.6,0.5,1.3,1,2.2,1.6c0.9,0.6,1.9,1.1,3.2,1.6c1.2,0.5,2.7,0.7,4.5,0.7c1.4,0,2.7-0.2,3.8-0.6c1.1-0.4,2.1-0.9,2.8-1.6
		c0.8-0.7,1.4-1.6,1.8-2.6s0.6-2.1,0.6-3.3c0-1.4-0.3-2.5-0.9-3.4c-0.6-0.9-1.5-1.6-2.5-2.2s-2.2-1.1-3.5-1.5
		c-1.3-0.4-2.7-0.8-4.1-1.3c-1.4-0.4-2.7-1-4.1-1.5s-2.5-1.4-3.5-2.3c-1-0.9-1.9-2.1-2.5-3.5c-0.6-1.4-0.9-3.2-0.9-5.3
		c0-1.7,0.3-3.3,1-4.8c0.7-1.6,1.6-2.9,2.8-4.2c1.2-1.2,2.8-2.2,4.6-2.9c1.8-0.7,3.9-1.1,6.2-1.1c2.6,0,5,0.4,7.2,1.3s4.1,2,5.7,3.6
		L739.9,298z"/>
	<path class="st5" d="M758.7,337.7c-2.7,0-4.7-0.7-6.2-2.2c-1.4-1.5-2.2-3.6-2.2-6.4v-19.8h-3.8c-0.4,0-0.7-0.1-0.9-0.3
		c-0.2-0.2-0.4-0.6-0.4-1v-2.6l5.4-0.7l1.4-9.9c0.1-0.4,0.3-0.7,0.5-0.9c0.2-0.2,0.6-0.3,1-0.3h3.2v11.1h9.4v4.6h-9.4v19.4
		c0,1.3,0.3,2.3,1,2.9c0.6,0.6,1.5,1,2.5,1c0.6,0,1.1-0.1,1.5-0.2c0.4-0.2,0.8-0.3,1.1-0.5c0.3-0.2,0.6-0.4,0.8-0.5
		c0.2-0.2,0.4-0.2,0.6-0.2c0.2,0,0.4,0,0.5,0.1s0.2,0.3,0.4,0.5l1.9,3.1c-1,1-2.3,1.7-3.7,2.2C761.8,337.4,760.3,337.7,758.7,337.7z
		"/>
	<path class="st5" d="M800.8,304.1l-18.4,42.7c-0.2,0.5-0.5,0.8-0.8,1.1c-0.3,0.3-0.8,0.4-1.4,0.4h-4.7l6.1-13.2l-13.6-31h5.5
		c0.5,0,1,0.1,1.3,0.4s0.5,0.6,0.7,0.9l8.4,19.9c0.2,0.5,0.3,1,0.5,1.5c0.2,0.5,0.3,1,0.4,1.5c0.2-0.5,0.3-1,0.5-1.5s0.4-1,0.6-1.5
		l8.1-19.8c0.2-0.4,0.4-0.7,0.7-0.9c0.3-0.2,0.7-0.4,1.1-0.4H800.8z"/>
	<path class="st5" d="M812.2,289.1v48h-6.4v-48H812.2z"/>
	<path class="st5" d="M848.4,332.4c-0.8,0.9-1.7,1.7-2.7,2.4c-1,0.7-2.1,1.2-3.3,1.6c-1.2,0.4-2.3,0.7-3.6,0.9s-2.4,0.3-3.6,0.3
		c-2.3,0-4.4-0.4-6.3-1.2c-1.9-0.8-3.6-1.9-5-3.4s-2.5-3.3-3.3-5.5c-0.8-2.2-1.2-4.7-1.2-7.6c0-2.3,0.4-4.4,1.1-6.4s1.7-3.7,3.1-5.2
		c1.3-1.5,3-2.6,4.9-3.5c1.9-0.8,4.1-1.3,6.5-1.3c2,0,3.9,0.3,5.6,1c1.7,0.7,3.2,1.6,4.4,2.9c1.2,1.3,2.2,2.8,2.9,4.7
		c0.7,1.8,1.1,4,1.1,6.3c0,1-0.1,1.6-0.3,2c-0.2,0.3-0.6,0.5-1.2,0.5h-21.7c0.1,2,0.3,3.7,0.8,5.2c0.5,1.5,1.2,2.7,2.1,3.7
		c0.9,1,1.9,1.7,3.1,2.2s2.6,0.7,4.1,0.7c1.4,0,2.6-0.2,3.7-0.5c1-0.3,1.9-0.7,2.7-1.1s1.4-0.7,1.9-1.1c0.5-0.3,1-0.5,1.4-0.5
		c0.5,0,0.9,0.2,1.2,0.6L848.4,332.4z M843.2,317c0-1.3-0.2-2.4-0.5-3.5c-0.4-1.1-0.9-2-1.6-2.8c-0.7-0.8-1.5-1.4-2.5-1.8
		c-1-0.4-2.1-0.7-3.5-0.7c-2.7,0-4.8,0.8-6.3,2.3c-1.5,1.5-2.5,3.7-2.9,6.4H843.2z"/>
	<path class="st5" d="M900.2,331.3v5.8h-26.8v-46.7h6.9v40.9H900.2z"/>
	<path class="st5" d="M904.8,308.7c1.8-1.8,3.8-3.1,6-3.9c2.2-0.9,4.5-1.3,7.1-1.3c1.9,0,3.6,0.3,5,0.9s2.7,1.5,3.7,2.6
		c1,1.1,1.8,2.4,2.3,4c0.5,1.5,0.8,3.2,0.8,5.1v21.1h-2.8c-0.6,0-1.1-0.1-1.4-0.3c-0.3-0.2-0.6-0.6-0.8-1.2l-0.7-2.9
		c-0.8,0.8-1.7,1.5-2.5,2.1c-0.8,0.6-1.7,1.1-2.6,1.5c-0.9,0.4-1.9,0.7-2.9,1s-2.1,0.3-3.4,0.3c-1.3,0-2.5-0.2-3.7-0.5
		c-1.1-0.4-2.1-0.9-3-1.6c-0.8-0.7-1.5-1.7-2-2.8s-0.7-2.4-0.7-3.9c0-1.3,0.4-2.6,1.1-3.8c0.7-1.2,1.9-2.3,3.5-3.2
		c1.6-1,3.7-1.7,6.2-2.3c2.6-0.6,5.7-1,9.5-1v-2.4c0-2.5-0.5-4.4-1.6-5.6c-1.1-1.2-2.6-1.9-4.7-1.9c-1.4,0-2.6,0.2-3.5,0.5
		c-0.9,0.3-1.8,0.7-2.4,1.2c-0.7,0.4-1.3,0.8-1.8,1.2c-0.5,0.3-1,0.5-1.6,0.5c-0.4,0-0.8-0.1-1.1-0.4c-0.3-0.2-0.6-0.5-0.8-0.8
		L904.8,308.7z M923.4,322.5c-2.6,0.1-4.8,0.3-6.6,0.6c-1.8,0.3-3.3,0.7-4.4,1.3c-1.1,0.5-1.9,1.1-2.4,1.8c-0.5,0.7-0.7,1.5-0.7,2.4
		c0,0.8,0.1,1.5,0.4,2.1s0.6,1.1,1.1,1.5c0.5,0.4,1,0.7,1.6,0.8c0.6,0.2,1.3,0.3,2,0.3c1,0,1.9-0.1,2.7-0.3s1.6-0.5,2.3-0.8
		c0.7-0.4,1.4-0.8,2.1-1.3c0.7-0.5,1.3-1.1,1.9-1.8V322.5z"/>
	<path class="st5" d="M944.1,308.7c0.7-0.8,1.5-1.5,2.2-2.1c0.8-0.6,1.6-1.2,2.5-1.6s1.8-0.8,2.8-1c1-0.2,2.1-0.4,3.2-0.4
		c1.8,0,3.4,0.3,4.8,0.9s2.5,1.5,3.5,2.6c0.9,1.1,1.6,2.4,2.1,4c0.5,1.5,0.7,3.2,0.7,5.1v21.1h-6.4v-21.1c0-2.4-0.5-4.2-1.6-5.5
		c-1.1-1.3-2.7-2-5-2c-1.6,0-3.2,0.4-4.6,1.2c-1.4,0.8-2.7,1.8-4,3.1v24.2h-6.3v-33.1h3.8c0.9,0,1.4,0.4,1.7,1.3L944.1,308.7z"/>
	<path class="st5" d="M1002.8,305.3v2.4c0,0.8-0.5,1.3-1.5,1.5l-3.5,0.5c0.3,0.7,0.5,1.4,0.7,2.1s0.3,1.5,0.3,2.4
		c0,1.6-0.3,3.1-0.9,4.4c-0.6,1.3-1.5,2.4-2.6,3.4c-1.1,0.9-2.4,1.6-4,2.1c-1.5,0.5-3.2,0.7-5,0.7c-1.5,0-2.9-0.2-4.2-0.5
		c-0.7,0.4-1.1,0.8-1.5,1.3c-0.3,0.5-0.5,0.9-0.5,1.4c0,0.8,0.3,1.3,1,1.7c0.6,0.4,1.5,0.6,2.5,0.8c1,0.2,2.2,0.3,3.5,0.3
		c1.3,0,2.7,0.1,4.1,0.2c1.4,0.1,2.7,0.3,4.1,0.5c1.3,0.2,2.5,0.7,3.5,1.2c1,0.6,1.9,1.3,2.5,2.3c0.6,1,1,2.2,1,3.8
		c0,1.4-0.4,2.8-1.1,4.2c-0.7,1.3-1.7,2.5-3.1,3.6c-1.3,1-3,1.9-4.9,2.5c-1.9,0.6-4.1,0.9-6.6,0.9s-4.6-0.2-6.4-0.7
		c-1.8-0.5-3.3-1.1-4.5-1.9c-1.2-0.8-2.1-1.7-2.7-2.8c-0.6-1.1-0.9-2.2-0.9-3.3c0-1.6,0.5-3,1.5-4.1c1-1.1,2.4-2,4.1-2.6
		c-1-0.4-1.7-1-2.3-1.8s-0.8-1.7-0.8-3c0-0.5,0.1-1,0.3-1.5s0.4-1,0.8-1.5c0.4-0.5,0.8-1,1.3-1.4c0.5-0.5,1.1-0.9,1.8-1.2
		c-1.6-0.9-2.9-2.1-3.8-3.6c-0.9-1.5-1.4-3.3-1.4-5.3c0-1.6,0.3-3.1,0.9-4.4c0.6-1.3,1.5-2.4,2.6-3.4c1.1-0.9,2.5-1.6,4-2.1
		c1.6-0.5,3.2-0.7,5.1-0.7c2.9,0,5.3,0.6,7.4,1.8H1002.8z M996.4,338.9c0-0.8-0.2-1.4-0.7-1.9c-0.4-0.5-1-0.8-1.8-1.1
		c-0.7-0.3-1.6-0.5-2.6-0.6s-2-0.2-3.1-0.3c-1.1-0.1-2.2-0.1-3.4-0.2c-1.2-0.1-2.3-0.2-3.3-0.3c-1.1,0.6-2.1,1.2-2.8,2
		c-0.7,0.8-1.1,1.7-1.1,2.8c0,0.7,0.2,1.3,0.5,2c0.4,0.6,0.9,1.1,1.7,1.6c0.7,0.4,1.7,0.8,2.8,1c1.1,0.2,2.5,0.4,4.1,0.4
		c1.6,0,2.9-0.1,4.1-0.4c1.2-0.3,2.2-0.7,3-1.1c0.8-0.5,1.4-1.1,1.9-1.7C996.1,340.4,996.4,339.7,996.4,338.9z M986.2,320.7
		c1.1,0,2.1-0.2,3-0.5c0.9-0.3,1.6-0.7,2.1-1.3c0.6-0.6,1-1.2,1.3-2s0.4-1.6,0.4-2.6c0-1.9-0.6-3.4-1.7-4.6
		c-1.2-1.1-2.9-1.7-5.1-1.7c-2.2,0-3.9,0.6-5.1,1.7c-1.2,1.1-1.7,2.7-1.7,4.6c0,0.9,0.1,1.8,0.4,2.6c0.3,0.8,0.7,1.4,1.3,2
		c0.6,0.6,1.3,1,2.1,1.3S985.1,320.7,986.2,320.7z"/>
	<path class="st5" d="M1036.1,304.1v33.1h-3.8c-0.9,0-1.4-0.4-1.7-1.3l-0.5-3.3c-0.7,0.8-1.5,1.5-2.2,2.1c-0.8,0.6-1.6,1.2-2.5,1.6
		c-0.9,0.4-1.8,0.8-2.8,1c-1,0.2-2.1,0.4-3.2,0.4c-1.8,0-3.4-0.3-4.8-0.9c-1.4-0.6-2.5-1.5-3.5-2.6s-1.6-2.4-2.1-4
		c-0.5-1.5-0.7-3.2-0.7-5.1v-21.1h6.4v21.1c0,2.4,0.5,4.2,1.6,5.5c1.1,1.3,2.7,2,5,2c1.6,0,3.1-0.4,4.6-1.2c1.4-0.8,2.7-1.8,4-3.2
		v-24.2H1036.1z"/>
	<path class="st5" d="M1044.1,308.7c1.8-1.8,3.8-3.1,6-3.9c2.2-0.9,4.5-1.3,7.1-1.3c1.9,0,3.6,0.3,5,0.9s2.7,1.5,3.7,2.6
		c1,1.1,1.8,2.4,2.3,4c0.5,1.5,0.8,3.2,0.8,5.1v21.1h-2.8c-0.6,0-1.1-0.1-1.4-0.3c-0.3-0.2-0.6-0.6-0.8-1.2l-0.7-2.9
		c-0.8,0.8-1.7,1.5-2.5,2.1c-0.8,0.6-1.7,1.1-2.6,1.5c-0.9,0.4-1.9,0.7-2.9,1s-2.1,0.3-3.4,0.3c-1.3,0-2.5-0.2-3.7-0.5
		c-1.1-0.4-2.1-0.9-3-1.6c-0.8-0.7-1.5-1.7-2-2.8s-0.7-2.4-0.7-3.9c0-1.3,0.4-2.6,1.1-3.8c0.7-1.2,1.9-2.3,3.5-3.2
		c1.6-1,3.7-1.7,6.2-2.3c2.6-0.6,5.7-1,9.5-1v-2.4c0-2.5-0.5-4.4-1.6-5.6c-1.1-1.2-2.6-1.9-4.7-1.9c-1.4,0-2.6,0.2-3.5,0.5
		c-0.9,0.3-1.8,0.7-2.4,1.2c-0.7,0.4-1.3,0.8-1.8,1.2c-0.5,0.3-1,0.5-1.6,0.5c-0.4,0-0.8-0.1-1.1-0.4c-0.3-0.2-0.6-0.5-0.8-0.8
		L1044.1,308.7z M1062.8,322.5c-2.6,0.1-4.8,0.3-6.6,0.6c-1.8,0.3-3.3,0.7-4.4,1.3c-1.1,0.5-1.9,1.1-2.4,1.8
		c-0.5,0.7-0.7,1.5-0.7,2.4c0,0.8,0.1,1.5,0.4,2.1s0.6,1.1,1.1,1.5c0.5,0.4,1,0.7,1.6,0.8c0.6,0.2,1.3,0.3,2,0.3
		c1,0,1.9-0.1,2.7-0.3s1.6-0.5,2.3-0.8c0.7-0.4,1.4-0.8,2.1-1.3c0.7-0.5,1.3-1.1,1.9-1.8V322.5z"/>
	<path class="st5" d="M1105.7,305.3v2.4c0,0.8-0.5,1.3-1.5,1.5l-3.5,0.5c0.3,0.7,0.5,1.4,0.7,2.1s0.3,1.5,0.3,2.4
		c0,1.6-0.3,3.1-0.9,4.4c-0.6,1.3-1.5,2.4-2.6,3.4c-1.1,0.9-2.4,1.6-4,2.1c-1.5,0.5-3.2,0.7-5,0.7c-1.5,0-2.9-0.2-4.2-0.5
		c-0.7,0.4-1.1,0.8-1.5,1.3c-0.3,0.5-0.5,0.9-0.5,1.4c0,0.8,0.3,1.3,1,1.7c0.6,0.4,1.5,0.6,2.5,0.8c1,0.2,2.2,0.3,3.5,0.3
		c1.3,0,2.7,0.1,4.1,0.2c1.4,0.1,2.7,0.3,4.1,0.5c1.3,0.2,2.5,0.7,3.5,1.2c1,0.6,1.9,1.3,2.5,2.3c0.6,1,1,2.2,1,3.8
		c0,1.4-0.4,2.8-1.1,4.2c-0.7,1.3-1.7,2.5-3.1,3.6c-1.3,1-3,1.9-4.9,2.5c-1.9,0.6-4.1,0.9-6.6,0.9s-4.6-0.2-6.4-0.7
		c-1.8-0.5-3.3-1.1-4.5-1.9c-1.2-0.8-2.1-1.7-2.7-2.8c-0.6-1.1-0.9-2.2-0.9-3.3c0-1.6,0.5-3,1.5-4.1c1-1.1,2.4-2,4.1-2.6
		c-1-0.4-1.7-1-2.3-1.8s-0.8-1.7-0.8-3c0-0.5,0.1-1,0.3-1.5s0.4-1,0.8-1.5c0.4-0.5,0.8-1,1.3-1.4c0.5-0.5,1.1-0.9,1.8-1.2
		c-1.6-0.9-2.9-2.1-3.8-3.6c-0.9-1.5-1.4-3.3-1.4-5.3c0-1.6,0.3-3.1,0.9-4.4c0.6-1.3,1.5-2.4,2.6-3.4c1.1-0.9,2.5-1.6,4-2.1
		c1.6-0.5,3.2-0.7,5.1-0.7c2.9,0,5.3,0.6,7.4,1.8H1105.7z M1099.2,338.9c0-0.8-0.2-1.4-0.7-1.9c-0.4-0.5-1-0.8-1.8-1.1
		c-0.7-0.3-1.6-0.5-2.6-0.6s-2-0.2-3.1-0.3c-1.1-0.1-2.2-0.1-3.4-0.2c-1.2-0.1-2.3-0.2-3.3-0.3c-1.1,0.6-2.1,1.2-2.8,2
		c-0.7,0.8-1.1,1.7-1.1,2.8c0,0.7,0.2,1.3,0.5,2c0.4,0.6,0.9,1.1,1.7,1.6c0.7,0.4,1.7,0.8,2.8,1c1.1,0.2,2.5,0.4,4.1,0.4
		c1.6,0,2.9-0.1,4.1-0.4c1.2-0.3,2.2-0.7,3-1.1c0.8-0.5,1.4-1.1,1.9-1.7C1099,340.4,1099.2,339.7,1099.2,338.9z M1089.1,320.7
		c1.1,0,2.1-0.2,3-0.5c0.9-0.3,1.6-0.7,2.1-1.3c0.6-0.6,1-1.2,1.3-2s0.4-1.6,0.4-2.6c0-1.9-0.6-3.4-1.7-4.6
		c-1.2-1.1-2.9-1.7-5.1-1.7c-2.2,0-3.9,0.6-5.1,1.7c-1.2,1.1-1.7,2.7-1.7,4.6c0,0.9,0.1,1.8,0.4,2.6c0.3,0.8,0.7,1.4,1.3,2
		c0.6,0.6,1.3,1,2.1,1.3S1088,320.7,1089.1,320.7z"/>
	<path class="st5" d="M1138.1,332.4c-0.8,0.9-1.7,1.7-2.7,2.4c-1,0.7-2.1,1.2-3.3,1.6c-1.2,0.4-2.3,0.7-3.6,0.9s-2.4,0.3-3.6,0.3
		c-2.3,0-4.4-0.4-6.3-1.2c-1.9-0.8-3.6-1.9-5-3.4s-2.5-3.3-3.3-5.5c-0.8-2.2-1.2-4.7-1.2-7.6c0-2.3,0.4-4.4,1.1-6.4s1.7-3.7,3.1-5.2
		c1.3-1.5,3-2.6,4.9-3.5c1.9-0.8,4.1-1.3,6.5-1.3c2,0,3.9,0.3,5.6,1c1.7,0.7,3.2,1.6,4.4,2.9c1.2,1.3,2.2,2.8,2.9,4.7
		c0.7,1.8,1.1,4,1.1,6.3c0,1-0.1,1.6-0.3,2c-0.2,0.3-0.6,0.5-1.2,0.5h-21.7c0.1,2,0.3,3.7,0.8,5.2c0.5,1.5,1.2,2.7,2.1,3.7
		c0.9,1,1.9,1.7,3.1,2.2s2.6,0.7,4.1,0.7c1.4,0,2.6-0.2,3.7-0.5c1-0.3,1.9-0.7,2.7-1.1s1.4-0.7,1.9-1.1c0.5-0.3,1-0.5,1.4-0.5
		c0.5,0,0.9,0.2,1.2,0.6L1138.1,332.4z M1132.9,317c0-1.3-0.2-2.4-0.5-3.5c-0.4-1.1-0.9-2-1.6-2.8c-0.7-0.8-1.5-1.4-2.5-1.8
		c-1-0.4-2.1-0.7-3.5-0.7c-2.7,0-4.8,0.8-6.3,2.3c-1.5,1.5-2.5,3.7-2.9,6.4H1132.9z"/>
	<path class="st5" d="M1165.7,316.7c0,4.6,0.6,9.1,1.7,13.4c1.1,4.4,2.8,8.5,5,12.4c0.4,0.7,0.5,1.3,0.3,1.7
		c-0.2,0.4-0.4,0.7-0.8,0.9l-2.8,1.7c-1.6-2.5-3-5-4.2-7.4c-1.1-2.5-2.1-4.9-2.8-7.4s-1.2-5-1.5-7.5c-0.3-2.5-0.5-5.1-0.5-7.8
		c0-2.7,0.2-5.3,0.5-7.8c0.3-2.5,0.8-5,1.5-7.5c0.7-2.5,1.6-5,2.8-7.4c1.1-2.5,2.5-4.9,4.2-7.4l2.8,1.7c0.4,0.2,0.6,0.6,0.8,0.9
		c0.2,0.4,0.1,0.9-0.3,1.7c-2.2,3.9-3.9,8-5,12.4C1166.3,307.6,1165.7,312.1,1165.7,316.7z"/>
	<path class="st5" d="M1212,327.1c0.4,0,0.7,0.2,1,0.5l2.7,3c-1.9,2.3-4.2,4-7,5.2c-2.7,1.2-6,1.9-9.9,1.9c-3.4,0-6.5-0.6-9.2-1.8
		c-2.7-1.2-5.1-2.8-7-4.9c-1.9-2.1-3.4-4.6-4.5-7.6c-1.1-2.9-1.6-6.2-1.6-9.7c0-3.5,0.6-6.7,1.7-9.7c1.1-2.9,2.7-5.4,4.7-7.6
		c2-2.1,4.4-3.7,7.2-4.9c2.8-1.2,5.9-1.8,9.3-1.8c3.3,0,6.3,0.5,8.9,1.6c2.6,1.1,4.8,2.5,6.7,4.3l-2.3,3.2c-0.2,0.2-0.3,0.4-0.6,0.6
		c-0.2,0.2-0.5,0.2-0.9,0.2c-0.4,0-0.9-0.2-1.4-0.6c-0.6-0.4-1.3-0.9-2.2-1.4c-0.9-0.5-2-1-3.3-1.4c-1.3-0.4-3-0.6-4.9-0.6
		c-2.3,0-4.4,0.4-6.4,1.2c-1.9,0.8-3.6,2-5,3.5c-1.4,1.5-2.5,3.4-3.3,5.6c-0.8,2.2-1.2,4.7-1.2,7.5c0,2.8,0.4,5.4,1.2,7.6
		c0.8,2.2,1.9,4.1,3.3,5.6c1.4,1.5,3.1,2.7,5,3.5c1.9,0.8,4,1.2,6.2,1.2c1.3,0,2.6-0.1,3.6-0.2c1.1-0.2,2.1-0.4,3-0.7
		c0.9-0.3,1.8-0.7,2.6-1.3s1.6-1.1,2.4-1.8c0.2-0.2,0.4-0.3,0.6-0.4S1211.8,327.1,1212,327.1z"/>
	<path class="st5" d="M1246.9,298c-0.2,0.4-0.4,0.6-0.7,0.8c-0.2,0.2-0.5,0.3-0.9,0.3c-0.4,0-0.8-0.2-1.3-0.5
		c-0.5-0.4-1.1-0.8-1.9-1.2c-0.7-0.4-1.6-0.8-2.7-1.2c-1-0.4-2.3-0.5-3.7-0.5c-1.4,0-2.6,0.2-3.6,0.5c-1,0.4-1.9,0.8-2.6,1.5
		c-0.7,0.6-1.2,1.3-1.6,2.2c-0.4,0.8-0.5,1.7-0.5,2.7c0,1.3,0.3,2.3,1,3.1c0.6,0.8,1.5,1.5,2.5,2.1c1,0.6,2.2,1.1,3.5,1.5
		c1.3,0.4,2.7,0.9,4.1,1.4c1.4,0.5,2.7,1,4.1,1.6c1.3,0.6,2.5,1.4,3.5,2.3c1,0.9,1.9,2,2.5,3.4c0.6,1.3,1,3,1,4.9
		c0,2.1-0.4,4-1.1,5.8s-1.7,3.4-3.1,4.7c-1.3,1.3-3,2.4-5,3.2c-2,0.8-4.2,1.2-6.7,1.2c-1.5,0-3-0.1-4.4-0.4s-2.7-0.7-4-1.2
		c-1.3-0.5-2.4-1.2-3.5-1.9c-1.1-0.7-2.1-1.6-2.9-2.5l2-3.3c0.2-0.3,0.4-0.5,0.7-0.7c0.3-0.2,0.6-0.3,0.9-0.3c0.5,0,1,0.2,1.6,0.7
		s1.3,1,2.2,1.6c0.9,0.6,1.9,1.1,3.2,1.6c1.2,0.5,2.7,0.7,4.5,0.7c1.4,0,2.7-0.2,3.8-0.6s2.1-0.9,2.8-1.6c0.8-0.7,1.4-1.6,1.8-2.6
		s0.6-2.1,0.6-3.3c0-1.4-0.3-2.5-0.9-3.4c-0.6-0.9-1.5-1.6-2.5-2.2c-1-0.6-2.2-1.1-3.5-1.5c-1.3-0.4-2.7-0.8-4.1-1.3
		c-1.4-0.4-2.7-1-4.1-1.5c-1.3-0.6-2.5-1.4-3.5-2.3c-1-0.9-1.9-2.1-2.5-3.5c-0.6-1.4-0.9-3.2-0.9-5.3c0-1.7,0.3-3.3,1-4.8
		c0.7-1.6,1.6-2.9,2.8-4.2c1.2-1.2,2.8-2.2,4.6-2.9c1.8-0.7,3.9-1.1,6.2-1.1c2.6,0,5,0.4,7.2,1.3c2.2,0.8,4.1,2,5.7,3.6L1246.9,298z
		"/>
	<path class="st5" d="M1284.9,331.3v5.8h-26.8v-46.7h6.9v40.9H1284.9z"/>
	<path class="st5" d="M1295.1,316.7c0-4.6-0.6-9.1-1.7-13.5c-1.2-4.4-2.8-8.5-5.1-12.4c-0.4-0.7-0.5-1.3-0.3-1.7
		c0.2-0.4,0.5-0.7,0.8-0.9l2.8-1.7c1.6,2.5,3,5,4.1,7.4s2.1,4.9,2.8,7.4c0.7,2.5,1.2,5,1.6,7.5s0.5,5.1,0.5,7.8
		c0,2.6-0.2,5.2-0.5,7.8s-0.8,5.1-1.6,7.5s-1.6,5-2.8,7.4c-1.1,2.5-2.5,4.9-4.1,7.4l-2.8-1.7c-0.4-0.2-0.6-0.6-0.8-0.9
		c-0.2-0.4-0.1-0.9,0.3-1.7c2.2-3.9,3.9-8,5.1-12.4C1294.5,325.8,1295.1,321.3,1295.1,316.7z"/>
	<path class="st5" d="M1330.3,309c0.7-0.8,1.4-1.6,2.2-2.3s1.6-1.3,2.6-1.8c0.9-0.5,1.9-0.9,2.9-1.1c1-0.3,2.1-0.4,3.3-0.4
		c1.9,0,3.6,0.4,5.1,1.1c1.5,0.7,2.8,1.8,3.9,3.3c1.1,1.4,1.9,3.2,2.5,5.3s0.9,4.5,0.9,7.3c0,2.5-0.3,4.7-1,6.8s-1.6,3.9-2.8,5.5
		c-1.2,1.5-2.7,2.8-4.5,3.6s-3.8,1.3-6,1.3c-2,0-3.7-0.3-5.1-1c-1.4-0.7-2.7-1.6-3.8-2.7v14.4h-6.3v-44.2h3.8c0.9,0,1.4,0.4,1.7,1.3
		L1330.3,309z M1330.7,329c1,1.4,2.2,2.3,3.4,2.9c1.2,0.5,2.6,0.8,4.1,0.8c2.9,0,5.2-1,6.8-3.1c1.6-2.1,2.4-5.1,2.4-9.2
		c0-2.1-0.2-3.9-0.5-5.4c-0.4-1.5-0.9-2.7-1.6-3.6c-0.7-0.9-1.5-1.6-2.5-2.1c-1-0.4-2.1-0.7-3.4-0.7c-1.8,0-3.4,0.4-4.8,1.2
		c-1.4,0.8-2.6,2-3.8,3.5V329z"/>
	<path class="st5" d="M1366.9,310.4c1.1-2.2,2.3-3.9,3.8-5.1c1.5-1.2,3.3-1.9,5.4-1.9c0.7,0,1.4,0.1,2,0.2c0.6,0.2,1.2,0.4,1.7,0.7
		l-0.4,4.8c-0.2,0.6-0.5,0.9-1.1,0.9c-0.3,0-0.8-0.1-1.4-0.2s-1.3-0.2-2-0.2c-1,0-1.9,0.1-2.7,0.4s-1.5,0.7-2.1,1.3
		s-1.2,1.3-1.6,2.1c-0.5,0.8-0.9,1.8-1.3,2.8v20.7h-6.3v-33.1h3.6c0.7,0,1.2,0.1,1.4,0.4c0.2,0.2,0.4,0.7,0.5,1.3L1366.9,310.4z"/>
	<path class="st5" d="M1397.6,303.6c2.4,0,4.6,0.4,6.6,1.2c2,0.8,3.6,1.9,5,3.4s2.4,3.3,3.2,5.4c0.7,2.1,1.1,4.4,1.1,7
		c0,2.6-0.4,5-1.1,7.1c-0.7,2.1-1.8,3.9-3.2,5.4s-3,2.6-5,3.4s-4.2,1.2-6.6,1.2c-2.5,0-4.7-0.4-6.6-1.2s-3.6-1.9-5-3.4
		s-2.5-3.3-3.2-5.4c-0.7-2.1-1.1-4.5-1.1-7.1c0-2.6,0.4-5,1.1-7c0.7-2.1,1.8-3.9,3.2-5.4s3.1-2.6,5-3.4
		C1393,304,1395.2,303.6,1397.6,303.6z M1397.6,332.7c3.1,0,5.5-1.1,7-3.2c1.5-2.1,2.3-5.1,2.3-8.9s-0.8-6.8-2.3-8.9
		c-1.5-2.1-3.9-3.2-7-3.2c-3.2,0-5.5,1.1-7.1,3.2c-1.6,2.1-2.3,5.1-2.3,8.9s0.8,6.8,2.3,8.9C1392.1,331.6,1394.5,332.7,1397.6,332.7
		z"/>
	<path class="st5" d="M1443.8,310.3c-0.2,0.2-0.4,0.4-0.6,0.6c-0.2,0.1-0.5,0.2-0.8,0.2c-0.3,0-0.7-0.1-1.1-0.4s-0.9-0.6-1.4-0.9
		c-0.6-0.3-1.3-0.6-2.1-0.9c-0.8-0.3-1.8-0.4-3-0.4c-1.6,0-2.9,0.3-4.1,0.8c-1.2,0.6-2.2,1.4-3,2.4c-0.8,1-1.4,2.3-1.8,3.8
		c-0.4,1.5-0.6,3.2-0.6,5c0,1.9,0.2,3.7,0.7,5.2c0.4,1.5,1.1,2.8,1.9,3.8c0.8,1,1.8,1.8,2.9,2.3c1.2,0.5,2.4,0.8,3.8,0.8
		c1.4,0,2.5-0.2,3.4-0.5c0.9-0.3,1.6-0.7,2.2-1.1s1.1-0.8,1.5-1.1c0.4-0.3,0.8-0.5,1.2-0.5c0.5,0,0.9,0.2,1.2,0.6l1.8,2.3
		c-0.8,0.9-1.6,1.7-2.6,2.4c-0.9,0.7-1.9,1.2-3,1.6c-1.1,0.4-2.2,0.7-3.3,0.9c-1.2,0.2-2.3,0.3-3.5,0.3c-2.1,0-4-0.4-5.8-1.1
		c-1.8-0.8-3.3-1.9-4.7-3.3c-1.3-1.5-2.3-3.2-3.1-5.4c-0.8-2.1-1.1-4.5-1.1-7.2c0-2.5,0.3-4.7,1-6.8s1.7-3.9,3-5.4
		c1.3-1.5,3-2.7,4.9-3.5c2-0.9,4.2-1.3,6.7-1.3c2.4,0,4.4,0.4,6.2,1.1c1.8,0.8,3.4,1.8,4.8,3.2L1443.8,310.3z"/>
	<path class="st5" d="M1478.3,332.4c-0.8,0.9-1.7,1.7-2.7,2.4c-1,0.7-2.1,1.2-3.3,1.6c-1.2,0.4-2.3,0.7-3.6,0.9s-2.4,0.3-3.6,0.3
		c-2.3,0-4.4-0.4-6.3-1.2c-1.9-0.8-3.6-1.9-5-3.4s-2.5-3.3-3.3-5.5c-0.8-2.2-1.2-4.7-1.2-7.6c0-2.3,0.4-4.4,1.1-6.4s1.7-3.7,3.1-5.2
		c1.3-1.5,3-2.6,4.9-3.5c1.9-0.8,4.1-1.3,6.5-1.3c2,0,3.9,0.3,5.6,1c1.7,0.7,3.2,1.6,4.4,2.9c1.2,1.3,2.2,2.8,2.9,4.7
		c0.7,1.8,1.1,4,1.1,6.3c0,1-0.1,1.6-0.3,2c-0.2,0.3-0.6,0.5-1.2,0.5h-21.7c0.1,2,0.3,3.7,0.8,5.2c0.5,1.5,1.2,2.7,2.1,3.7
		c0.9,1,1.9,1.7,3.1,2.2s2.6,0.7,4.1,0.7c1.4,0,2.6-0.2,3.7-0.5c1-0.3,1.9-0.7,2.7-1.1s1.4-0.7,1.9-1.1c0.5-0.3,1-0.5,1.4-0.5
		c0.5,0,0.9,0.2,1.2,0.6L1478.3,332.4z M1473.1,317c0-1.3-0.2-2.4-0.5-3.5c-0.4-1.1-0.9-2-1.6-2.8c-0.7-0.8-1.5-1.4-2.5-1.8
		c-1-0.4-2.1-0.7-3.5-0.7c-2.7,0-4.8,0.8-6.3,2.3c-1.5,1.5-2.5,3.7-2.9,6.4H1473.1z"/>
	<path class="st5" d="M1505.1,309.8c-0.2,0.3-0.4,0.5-0.6,0.6c-0.2,0.1-0.4,0.2-0.7,0.2c-0.3,0-0.7-0.1-1.2-0.4
		c-0.4-0.2-0.9-0.5-1.5-0.8c-0.6-0.3-1.3-0.5-2.1-0.8c-0.8-0.2-1.8-0.4-2.9-0.4c-0.9,0-1.7,0.1-2.5,0.3c-0.7,0.2-1.4,0.5-1.9,0.9
		c-0.5,0.4-0.9,0.9-1.2,1.4c-0.3,0.6-0.4,1.1-0.4,1.8c0,0.8,0.2,1.5,0.7,2.1c0.5,0.5,1.1,1,1.9,1.4s1.7,0.7,2.7,1.1
		c1,0.3,2,0.6,3.1,1c1.1,0.3,2.1,0.7,3.1,1.2c1,0.4,1.9,1,2.7,1.7c0.8,0.7,1.4,1.5,1.9,2.4c0.5,0.9,0.7,2.1,0.7,3.4
		c0,1.5-0.3,3-0.8,4.3c-0.6,1.3-1.4,2.4-2.4,3.4c-1.1,1-2.4,1.7-4,2.2c-1.6,0.5-3.4,0.8-5.4,0.8c-2.3,0-4.4-0.4-6.3-1.1
		c-1.9-0.8-3.5-1.7-4.9-2.9l1.5-2.4c0.2-0.3,0.4-0.5,0.7-0.7c0.3-0.2,0.6-0.2,1-0.2c0.4,0,0.8,0.2,1.3,0.5c0.4,0.3,1,0.6,1.6,1
		c0.6,0.4,1.3,0.7,2.2,1c0.9,0.3,2,0.4,3.3,0.4c1.1,0,2-0.1,2.8-0.4s1.5-0.6,2-1.1c0.5-0.5,0.9-1,1.2-1.6c0.3-0.6,0.4-1.2,0.4-1.9
		c0-0.9-0.2-1.6-0.7-2.2s-1.1-1.1-1.9-1.5s-1.7-0.8-2.7-1.1c-1-0.3-2.1-0.6-3.1-1c-1.1-0.3-2.1-0.7-3.1-1.2c-1-0.5-1.9-1-2.7-1.7
		s-1.4-1.5-1.9-2.5s-0.7-2.2-0.7-3.6c0-1.3,0.3-2.5,0.8-3.7s1.3-2.2,2.3-3.1c1-0.9,2.3-1.6,3.7-2.1c1.5-0.5,3.2-0.8,5.1-0.8
		c2.2,0,4.2,0.3,5.9,1c1.8,0.7,3.3,1.6,4.5,2.9L1505.1,309.8z"/>
	<path class="st5" d="M1533.4,309.8c-0.2,0.3-0.4,0.5-0.6,0.6c-0.2,0.1-0.4,0.2-0.7,0.2c-0.3,0-0.7-0.1-1.2-0.4
		c-0.4-0.2-0.9-0.5-1.5-0.8c-0.6-0.3-1.3-0.5-2.1-0.8c-0.8-0.2-1.8-0.4-2.9-0.4c-0.9,0-1.7,0.1-2.5,0.3c-0.7,0.2-1.4,0.5-1.9,0.9
		c-0.5,0.4-0.9,0.9-1.2,1.4c-0.3,0.6-0.4,1.1-0.4,1.8c0,0.8,0.2,1.5,0.7,2.1c0.5,0.5,1.1,1,1.9,1.4s1.7,0.7,2.7,1.1
		c1,0.3,2,0.6,3.1,1c1.1,0.3,2.1,0.7,3.1,1.2c1,0.4,1.9,1,2.7,1.7c0.8,0.7,1.4,1.5,1.9,2.4c0.5,0.9,0.7,2.1,0.7,3.4
		c0,1.5-0.3,3-0.8,4.3c-0.6,1.3-1.4,2.4-2.4,3.4c-1.1,1-2.4,1.7-4,2.2c-1.6,0.5-3.4,0.8-5.4,0.8c-2.3,0-4.4-0.4-6.3-1.1
		c-1.9-0.8-3.5-1.7-4.9-2.9l1.5-2.4c0.2-0.3,0.4-0.5,0.7-0.7c0.3-0.2,0.6-0.2,1-0.2c0.4,0,0.8,0.2,1.3,0.5c0.4,0.3,1,0.6,1.6,1
		c0.6,0.4,1.3,0.7,2.2,1c0.9,0.3,2,0.4,3.3,0.4c1.1,0,2-0.1,2.8-0.4s1.5-0.6,2-1.1c0.5-0.5,0.9-1,1.2-1.6c0.3-0.6,0.4-1.2,0.4-1.9
		c0-0.9-0.2-1.6-0.7-2.2s-1.1-1.1-1.9-1.5s-1.7-0.8-2.7-1.1c-1-0.3-2.1-0.6-3.1-1c-1.1-0.3-2.1-0.7-3.1-1.2c-1-0.5-1.9-1-2.7-1.7
		s-1.4-1.5-1.9-2.5s-0.7-2.2-0.7-3.6c0-1.3,0.3-2.5,0.8-3.7s1.3-2.2,2.3-3.1c1-0.9,2.3-1.6,3.7-2.1c1.5-0.5,3.2-0.8,5.1-0.8
		c2.2,0,4.2,0.3,5.9,1c1.8,0.7,3.3,1.6,4.5,2.9L1533.4,309.8z"/>
	<path class="st5" d="M1556.3,303.6c2.4,0,4.6,0.4,6.6,1.2c2,0.8,3.6,1.9,5,3.4s2.4,3.3,3.2,5.4c0.7,2.1,1.1,4.4,1.1,7
		c0,2.6-0.4,5-1.1,7.1c-0.7,2.1-1.8,3.9-3.2,5.4s-3,2.6-5,3.4s-4.2,1.2-6.6,1.2c-2.5,0-4.7-0.4-6.6-1.2s-3.6-1.9-5-3.4
		s-2.5-3.3-3.2-5.4c-0.7-2.1-1.1-4.5-1.1-7.1c0-2.6,0.4-5,1.1-7c0.7-2.1,1.8-3.9,3.2-5.4s3.1-2.6,5-3.4
		C1551.6,304,1553.8,303.6,1556.3,303.6z M1556.3,332.7c3.1,0,5.5-1.1,7-3.2c1.5-2.1,2.3-5.1,2.3-8.9s-0.8-6.8-2.3-8.9
		c-1.5-2.1-3.9-3.2-7-3.2c-3.2,0-5.5,1.1-7.1,3.2c-1.6,2.1-2.3,5.1-2.3,8.9s0.8,6.8,2.3,8.9C1550.8,331.6,1553.1,332.7,1556.3,332.7
		z"/>
	<path class="st5" d="M1585.2,310.4c1.1-2.2,2.3-3.9,3.8-5.1c1.5-1.2,3.3-1.9,5.4-1.9c0.7,0,1.4,0.1,2,0.2c0.6,0.2,1.2,0.4,1.7,0.7
		l-0.4,4.8c-0.2,0.6-0.5,0.9-1.1,0.9c-0.3,0-0.8-0.1-1.4-0.2s-1.3-0.2-2-0.2c-1,0-1.9,0.1-2.7,0.4s-1.5,0.7-2.1,1.3
		s-1.2,1.3-1.6,2.1c-0.5,0.8-0.9,1.8-1.3,2.8v20.7h-6.3v-33.1h3.6c0.7,0,1.2,0.1,1.4,0.4c0.2,0.2,0.4,0.7,0.5,1.3L1585.2,310.4z"/>
	<path class="st5" d="M1620.3,337.2v-27.9l-3.5-0.4c-0.5-0.1-0.9-0.3-1.2-0.5c-0.3-0.2-0.5-0.6-0.5-1.1v-2.6h5.1v-3
		c0-1.9,0.3-3.6,0.8-5c0.5-1.5,1.3-2.7,2.3-3.8c1-1,2.2-1.8,3.6-2.3s3-0.8,4.8-0.8c1.5,0,2.9,0.2,4.1,0.7l-0.1,3.2
		c0,0.3-0.1,0.5-0.3,0.6c-0.2,0.1-0.4,0.2-0.6,0.3c-0.2,0.1-0.6,0.1-0.9,0.1c-0.4,0-0.7,0-1.2,0c-1,0-1.9,0.1-2.7,0.4
		c-0.8,0.2-1.5,0.6-2,1.2c-0.6,0.6-1,1.3-1.3,2.2c-0.3,0.9-0.5,2.1-0.5,3.4v2.8h9.3v4.6h-9.1v27.9H1620.3z"/>
	<path class="st5" d="M1654.2,303.6c2.4,0,4.6,0.4,6.6,1.2c2,0.8,3.6,1.9,5,3.4s2.4,3.3,3.2,5.4c0.7,2.1,1.1,4.4,1.1,7
		c0,2.6-0.4,5-1.1,7.1c-0.7,2.1-1.8,3.9-3.2,5.4s-3,2.6-5,3.4s-4.2,1.2-6.6,1.2c-2.5,0-4.7-0.4-6.6-1.2s-3.6-1.9-5-3.4
		s-2.5-3.3-3.2-5.4c-0.7-2.1-1.1-4.5-1.1-7.1c0-2.6,0.4-5,1.1-7c0.7-2.1,1.8-3.9,3.2-5.4s3.1-2.6,5-3.4
		C1649.5,304,1651.7,303.6,1654.2,303.6z M1654.2,332.7c3.1,0,5.5-1.1,7-3.2c1.5-2.1,2.3-5.1,2.3-8.9s-0.8-6.8-2.3-8.9
		c-1.5-2.1-3.9-3.2-7-3.2c-3.2,0-5.5,1.1-7.1,3.2c-1.6,2.1-2.3,5.1-2.3,8.9s0.8,6.8,2.3,8.9C1648.7,331.6,1651,332.7,1654.2,332.7z"
		/>
	<path class="st5" d="M1683.1,310.4c1.1-2.2,2.3-3.9,3.8-5.1c1.5-1.2,3.3-1.9,5.4-1.9c0.7,0,1.4,0.1,2,0.2c0.6,0.2,1.2,0.4,1.7,0.7
		l-0.4,4.8c-0.2,0.6-0.5,0.9-1.1,0.9c-0.3,0-0.8-0.1-1.4-0.2s-1.3-0.2-2-0.2c-1,0-1.9,0.1-2.7,0.4s-1.5,0.7-2.1,1.3
		s-1.2,1.3-1.6,2.1c-0.5,0.8-0.9,1.8-1.3,2.8v20.7h-6.3v-33.1h3.6c0.7,0,1.2,0.1,1.4,0.4c0.2,0.2,0.4,0.7,0.5,1.3L1683.1,310.4z"/>
	<path class="st5" d="M1732,320.9c0,2.6-0.3,4.9-1,7c-0.7,2.1-1.6,3.8-2.8,5.3c-1.2,1.4-2.8,2.6-4.7,3.3c-1.9,0.8-4,1.2-6.4,1.2
		c-2.2,0-4.4-0.3-6.7-0.9l0.4-4.1c0-0.4,0.2-0.7,0.4-1c0.2-0.2,0.6-0.4,1.1-0.4c0.4,0,0.9,0.1,1.5,0.3c0.6,0.2,1.5,0.3,2.5,0.3
		c1.4,0,2.6-0.2,3.7-0.6c1.1-0.4,2-1.1,2.7-1.9s1.3-2,1.7-3.4c0.4-1.4,0.6-3,0.6-4.9v-30.6h6.9V320.9z"/>
	<path class="st5" d="M1739.7,308.7c1.8-1.8,3.8-3.1,6-3.9c2.2-0.9,4.5-1.3,7.1-1.3c1.9,0,3.6,0.3,5,0.9s2.7,1.5,3.7,2.6
		c1,1.1,1.8,2.4,2.3,4c0.5,1.5,0.8,3.2,0.8,5.1v21.1h-2.8c-0.6,0-1.1-0.1-1.4-0.3c-0.3-0.2-0.6-0.6-0.8-1.2l-0.7-2.9
		c-0.8,0.8-1.7,1.5-2.5,2.1c-0.8,0.6-1.7,1.1-2.6,1.5c-0.9,0.4-1.9,0.7-2.9,1s-2.1,0.3-3.4,0.3c-1.3,0-2.5-0.2-3.7-0.5
		c-1.1-0.4-2.1-0.9-3-1.6c-0.8-0.7-1.5-1.7-2-2.8s-0.7-2.4-0.7-3.9c0-1.3,0.4-2.6,1.1-3.8c0.7-1.2,1.9-2.3,3.5-3.2
		c1.6-1,3.7-1.7,6.2-2.3c2.6-0.6,5.7-1,9.5-1v-2.4c0-2.5-0.5-4.4-1.6-5.6c-1.1-1.2-2.6-1.9-4.7-1.9c-1.4,0-2.6,0.2-3.5,0.5
		c-0.9,0.3-1.8,0.7-2.4,1.2c-0.7,0.4-1.3,0.8-1.8,1.2c-0.5,0.3-1,0.5-1.6,0.5c-0.4,0-0.8-0.1-1.1-0.4c-0.3-0.2-0.6-0.5-0.8-0.8
		L1739.7,308.7z M1758.3,322.5c-2.6,0.1-4.8,0.3-6.6,0.6c-1.8,0.3-3.3,0.7-4.4,1.3c-1.1,0.5-1.9,1.1-2.4,1.8
		c-0.5,0.7-0.7,1.5-0.7,2.4c0,0.8,0.1,1.5,0.4,2.1s0.6,1.1,1.1,1.5c0.5,0.4,1,0.7,1.6,0.8c0.6,0.2,1.3,0.3,2,0.3
		c1,0,1.9-0.1,2.7-0.3s1.6-0.5,2.3-0.8c0.7-0.4,1.4-0.8,2.1-1.3c0.7-0.5,1.3-1.1,1.9-1.8V322.5z"/>
	<path class="st5" d="M1801,304.1l-13.4,33.1h-5.7l-13.4-33.1h5.2c0.5,0,0.9,0.1,1.2,0.4c0.3,0.2,0.5,0.5,0.7,0.9l7.9,20.3
		c0.3,0.8,0.5,1.7,0.7,2.5s0.4,1.7,0.6,2.5c0.2-0.8,0.4-1.6,0.6-2.5c0.2-0.8,0.5-1.7,0.8-2.5l8-20.3c0.1-0.4,0.4-0.7,0.7-0.9
		c0.3-0.2,0.7-0.4,1.2-0.4H1801z"/>
	<path class="st5" d="M1804.5,308.7c1.8-1.8,3.8-3.1,6-3.9c2.2-0.9,4.5-1.3,7.1-1.3c1.9,0,3.6,0.3,5,0.9s2.7,1.5,3.7,2.6
		c1,1.1,1.8,2.4,2.3,4c0.5,1.5,0.8,3.2,0.8,5.1v21.1h-2.8c-0.6,0-1.1-0.1-1.4-0.3c-0.3-0.2-0.6-0.6-0.8-1.2l-0.7-2.9
		c-0.8,0.8-1.7,1.5-2.5,2.1c-0.8,0.6-1.7,1.1-2.6,1.5c-0.9,0.4-1.9,0.7-2.9,1s-2.1,0.3-3.4,0.3c-1.3,0-2.5-0.2-3.7-0.5
		c-1.1-0.4-2.1-0.9-3-1.6c-0.8-0.7-1.5-1.7-2-2.8s-0.7-2.4-0.7-3.9c0-1.3,0.4-2.6,1.1-3.8c0.7-1.2,1.9-2.3,3.5-3.2
		c1.6-1,3.7-1.7,6.2-2.3c2.6-0.6,5.7-1,9.5-1v-2.4c0-2.5-0.5-4.4-1.6-5.6c-1.1-1.2-2.6-1.9-4.7-1.9c-1.4,0-2.6,0.2-3.5,0.5
		c-0.9,0.3-1.8,0.7-2.4,1.2c-0.7,0.4-1.3,0.8-1.8,1.2c-0.5,0.3-1,0.5-1.6,0.5c-0.4,0-0.8-0.1-1.1-0.4c-0.3-0.2-0.6-0.5-0.8-0.8
		L1804.5,308.7z M1823.1,322.5c-2.6,0.1-4.8,0.3-6.6,0.6c-1.8,0.3-3.3,0.7-4.4,1.3c-1.1,0.5-1.9,1.1-2.4,1.8
		c-0.5,0.7-0.7,1.5-0.7,2.4c0,0.8,0.1,1.5,0.4,2.1s0.6,1.1,1.1,1.5c0.5,0.4,1,0.7,1.6,0.8c0.6,0.2,1.3,0.3,2,0.3
		c1,0,1.9-0.1,2.7-0.3s1.6-0.5,2.3-0.8c0.7-0.4,1.4-0.8,2.1-1.3c0.7-0.5,1.3-1.1,1.9-1.8V322.5z"/>
	<path class="st5" d="M1836.8,333.4c0-0.6,0.1-1.1,0.3-1.7c0.2-0.5,0.5-1,0.9-1.4s0.8-0.7,1.4-0.9c0.5-0.2,1.1-0.3,1.7-0.3
		c0.6,0,1.1,0.1,1.7,0.3c0.5,0.2,1,0.5,1.4,0.9s0.7,0.8,0.9,1.4c0.2,0.5,0.3,1.1,0.3,1.7c0,0.6-0.1,1.2-0.3,1.7
		c-0.2,0.5-0.5,1-0.9,1.4s-0.8,0.7-1.4,0.9c-0.5,0.2-1.1,0.3-1.7,0.3c-0.6,0-1.2-0.1-1.7-0.3c-0.5-0.2-1-0.5-1.4-0.9
		s-0.7-0.8-0.9-1.4C1837,334.5,1836.8,334,1836.8,333.4z"/>
</g>
</svg>
