<?xml version="1.0" encoding="UTF-8" standalone="no"?>
<!-- Created with Inkscape (http://www.inkscape.org/) -->

<svg
   xmlns:dc="http://purl.org/dc/elements/1.1/"
   xmlns:cc="http://creativecommons.org/ns#"
   xmlns:rdf="http://www.w3.org/1999/02/22-rdf-syntax-ns#"
   xmlns:svg="http://www.w3.org/2000/svg"
   xmlns="http://www.w3.org/2000/svg"
   xmlns:sodipodi="http://sodipodi.sourceforge.net/DTD/sodipodi-0.dtd"
   xmlns:inkscape="http://www.inkscape.org/namespaces/inkscape"
   width="370.49054"
   height="434.91931"
   id="svg2"
   version="1.1"
   inkscape:version="0.48.4 r9939"
   sodipodi:docname="reader-mini.svg"
   inkscape:export-filename="J:\My Projects\citeproc-java\gh-pages\images\reader-mini.png"
   inkscape:export-xdpi="4.7595034"
   inkscape:export-ydpi="4.7595034">
  <defs
     id="defs4">
    <filter
       id="filter3785"
       inkscape:label="Inner Shadow"
       inkscape:menu="Shadows and Glows"
       inkscape:menu-tooltip="Adds a colorizable drop shadow inside"
       color-interpolation-filters="sRGB"
       x="-0.1">
      <feGaussianBlur
         id="feGaussianBlur3787"
         stdDeviation="2 2"
         result="result8" />
      <feOffset
         id="feOffset3789"
         dx="2"
         dy="2"
         result="result11" />
      <feComposite
         id="feComposite3791"
         in2="result11"
         result="result6"
         in="SourceGraphic"
         operator="in" />
      <feFlood
         id="feFlood3793"
         result="result10"
         in="result6"
         flood-opacity="1"
         flood-color="rgb(174,177,181)" />
      <feBlend
         id="feBlend3795"
         in2="result10"
         mode="normal"
         in="result6"
         result="result12" />
      <feComposite
         id="feComposite3797"
         in2="SourceGraphic"
         result="result2"
         operator="in" />
    </filter>
  </defs>
  <sodipodi:namedview
     id="base"
     pagecolor="#ffffff"
     bordercolor="#666666"
     borderopacity="1.0"
     inkscape:pageopacity="0.0"
     inkscape:pageshadow="2"
     inkscape:zoom="0.78870185"
     inkscape:cx="26.370489"
     inkscape:cy="314.7237"
     inkscape:document-units="px"
     inkscape:current-layer="g3850"
     showgrid="false"
     inkscape:window-width="1920"
     inkscape:window-height="1017"
     inkscape:window-x="-8"
     inkscape:window-y="-8"
     inkscape:window-maximized="1"
     fit-margin-top="5"
     fit-margin-left="5"
     fit-margin-right="5"
     fit-margin-bottom="5" />
  <metadata
     id="metadata7">
    <rdf:RDF>
      <cc:Work
         rdf:about="">
        <dc:format>image/svg+xml</dc:format>
        <dc:type
           rdf:resource="http://purl.org/dc/dcmitype/StillImage" />
        <dc:title></dc:title>
      </cc:Work>
    </rdf:RDF>
  </metadata>
  <g
     inkscape:label="Ebene 1"
     inkscape:groupmode="layer"
     id="layer1"
     transform="translate(-134.3853,-405.98549)">
    <g
       id="g3850"
       transform="matrix(-1.1559288,0,0,1.1559288,729.61268,-87.211688)"
       style="stroke-width:6.92084169;stroke-miterlimit:4;stroke-dasharray:none">
      <path
         sodipodi:nodetypes="ccccccc"
         inkscape:connector-curvature="0"
         id="path3832"
         d="m 465.39431,663.20005 -18.23492,99.55862 c -35.10625,-11.10081 -73.36854,1.35445 -112.21495,12.62011 -26.63805,-19.44418 -34.77035,-33.18408 -78.55045,-47.67596 l 15.42956,-100.96086 c 28.62736,8.08528 57.05261,21.23561 84.1612,43.46926 57.02795,-13.19281 81.12267,-7.97609 109.40956,-7.01117 z"
         style="fill:none;stroke:#ffffff;stroke-width:6.92084168999999960;stroke-linecap:round;stroke-linejoin:round;stroke-miterlimit:4;stroke-opacity:1;stroke-dasharray:none" />
      <path
         inkscape:connector-curvature="0"
         id="path3834"
         d="M 354.88788,671.61346 334.76502,773.18504"
         style="fill:none;stroke:#ffffff;stroke-width:6.92084168999999960;stroke-linecap:round;stroke-linejoin:round;stroke-miterlimit:4;stroke-opacity:1;stroke-dasharray:none"
         sodipodi:nodetypes="cc" />
      <path
         transform="matrix(-1.1063016,0,0,1.1059447,699.64304,-84.190761)"
         d="m 256.11706,759.47583 c 0,16.10564 -13.0562,29.16184 -29.16184,29.16184 -16.10565,0 -29.16185,-13.0562 -29.16185,-29.16184 0,-16.10564 13.0562,-29.16184 29.16185,-29.16184 16.10564,0 29.16184,13.0562 29.16184,29.16184 z"
         sodipodi:ry="29.161844"
         sodipodi:rx="29.161844"
         sodipodi:cy="759.47583"
         sodipodi:cx="226.95522"
         id="path3836"
         style="fill:#e9edf2;fill-opacity:1;stroke:#ffffff;stroke-width:6.25684547000000000;stroke-linecap:round;stroke-linejoin:round;stroke-miterlimit:4;stroke-opacity:1;stroke-dasharray:none"
         sodipodi:type="arc" />
      <path
         transform="matrix(-1.1063016,0,0,1.1059447,509.35915,-112.94533)"
         sodipodi:type="arc"
         style="fill:#e9edf2;fill-opacity:1;stroke:#ffffff;stroke-width:6.25684547000000000;stroke-linecap:round;stroke-linejoin:round;stroke-miterlimit:4;stroke-opacity:1;stroke-dasharray:none"
         id="path3838"
         sodipodi:cx="226.95522"
         sodipodi:cy="759.47583"
         sodipodi:rx="29.161844"
         sodipodi:ry="29.161844"
         d="m 256.11706,759.47583 c 0,16.10564 -13.0562,29.16184 -29.16184,29.16184 -16.10565,0 -29.16185,-13.0562 -29.16185,-29.16184 0,-16.10564 13.0562,-29.16184 29.16185,-29.16184 16.10564,0 29.16184,13.0562 29.16184,29.16184 z" />
      <path
         sodipodi:nodetypes="cc"
         inkscape:connector-curvature="0"
         id="path3840"
         d="m 438.07858,581.31595 c 103.59153,111.08744 76.8444,246.5796 10.03094,206.68295"
         style="fill:none;stroke:#ffffff;stroke-width:6.92084168999999960;stroke-linecap:round;stroke-linejoin:round;stroke-miterlimit:4;stroke-opacity:1;stroke-dasharray:none" />
      <path
         style="fill:none;stroke:#ffffff;stroke-width:6.92084168999999960;stroke-linecap:round;stroke-linejoin:round;stroke-miterlimit:4;stroke-opacity:1;stroke-dasharray:none"
         d="M 300.74205,569.36766 C 173.66608,655.73645 180.9876,784.20326 257.69466,759.70306"
         id="path3842"
         inkscape:connector-curvature="0"
         sodipodi:nodetypes="cc" />
      <path
         sodipodi:nodetypes="sssss"
         inkscape:connector-curvature="0"
         id="path3827"
         d="m 343.68107,621.59754 c 42.03097,17.95137 81.48988,-1.51347 105.83858,-58.48623 24.34868,-56.97278 12.79393,-102.80001 -29.23705,-120.75137 -42.03097,-17.95136 -108.85398,-7.40841 -121.86841,53.16476 -13.25855,61.70936 4.39419,108.61618 45.26688,126.07284 z"
         style="fill:#e9edf2;fill-opacity:1;stroke:#ffffff;stroke-width:6.92084168999999960;stroke-linecap:butt;stroke-linejoin:miter;stroke-miterlimit:4;stroke-opacity:1;stroke-dasharray:none" />
      <path
         sodipodi:nodetypes="ccc"
         inkscape:connector-curvature="0"
         id="path3830"
         d="m 455.5755,538.96683 c -44.40276,-25.48174 -61.60416,-59.65196 -68.73164,-103.76532 -17.06661,47.77518 -46.52356,76.08614 -89.77195,82.73181"
         style="fill:none;stroke:#2c3e50;stroke-width:6.92084168999999960;stroke-linecap:round;stroke-linejoin:round;stroke-miterlimit:4;stroke-opacity:1;stroke-dasharray:none" />
      <path
         sodipodi:type="arc"
         style="fill:#2c3e50;fill-opacity:1;stroke:#2c3e50;stroke-width:7.22912550000000030;stroke-linecap:round;stroke-linejoin:round;stroke-miterlimit:4;stroke-opacity:1;stroke-dasharray:none"
         id="path3848"
         sodipodi:cx="338.53098"
         sodipodi:cy="514.13599"
         sodipodi:rx="5.0716248"
         sodipodi:ry="8.2413902"
         d="m 343.6026,514.13599 c 0,4.55159 -2.27064,8.24139 -5.07162,8.24139 -2.80099,0 -5.07163,-3.6898 -5.07163,-8.24139 0,-4.5516 2.27064,-8.24139 5.07163,-8.24139 2.80098,0 5.07162,3.68979 5.07162,8.24139 z"
         transform="matrix(0.91483488,0.2819717,-0.28193513,0.91495353,219.45802,-21.744363)" />
      <path
         transform="matrix(0.91483488,0.2819717,-0.28193513,0.91495353,181.16629,-29.403701)"
         d="m 343.6026,514.13599 c 0,4.55159 -2.27064,8.24139 -5.07162,8.24139 -2.80099,0 -5.07163,-3.6898 -5.07163,-8.24139 0,-4.5516 2.27064,-8.24139 5.07163,-8.24139 2.80098,0 5.07162,3.68979 5.07162,8.24139 z"
         sodipodi:ry="8.2413902"
         sodipodi:rx="5.0716248"
         sodipodi:cy="514.13599"
         sodipodi:cx="338.53098"
         id="path3844"
         style="fill:#2c3e50;fill-opacity:1;stroke:#2c3e50;stroke-width:7.22912550000000030;stroke-linecap:round;stroke-linejoin:round;stroke-miterlimit:4;stroke-opacity:1;stroke-dasharray:none"
         sodipodi:type="arc" />
      <path
         style="fill:none;fill-opacity:1;stroke:#ffffff;stroke-width:6.92084168999999960;stroke-linecap:butt;stroke-linejoin:miter;stroke-miterlimit:4;stroke-opacity:1;stroke-dasharray:none"
         d="m 343.68107,621.59754 c 42.03097,17.95137 81.48988,-1.51347 105.83858,-58.48623 24.34868,-56.97278 12.79393,-102.80001 -29.23705,-120.75137 -42.03097,-17.95136 -108.85398,-7.40841 -121.86841,53.16476 -13.25855,61.70936 4.39419,108.61618 45.26688,126.07284 z"
         id="path4393"
         inkscape:connector-curvature="0"
         sodipodi:nodetypes="sssss" />
    </g>
  </g>
</svg>
