<?xml version="1.0" encoding="utf-8"?>
<!-- Generator: Adobe Illustrator 24.0.0, SVG Export Plug-In . SVG Version: 6.00 Build 0)  -->
<svg version="1.1"
	 id="svg2" inkscape:export-filename="J:\My Projects\citeproc-java\gh-pages\images\reader.png" inkscape:export-xdpi="90.016701" inkscape:export-ydpi="90.016701" inkscape:version="0.48.4 r9939" sodipodi:docname="reader.svg" xmlns:cc="http://creativecommons.org/ns#" xmlns:dc="http://purl.org/dc/elements/1.1/" xmlns:inkscape="http://www.inkscape.org/namespaces/inkscape" xmlns:rdf="http://www.w3.org/1999/02/22-rdf-syntax-ns#" xmlns:sodipodi="http://sodipodi.sourceforge.net/DTD/sodipodi-0.dtd" xmlns:svg="http://www.w3.org/2000/svg"
	 xmlns="http://www.w3.org/2000/svg" xmlns:xlink="http://www.w3.org/1999/xlink" x="0px" y="0px" viewBox="0 0 370.5 434.9"
	 style="enable-background:new 0 0 370.5 434.9;" xml:space="preserve">
<style type="text/css">
	.st0{fill:none;stroke:#2C3E50;stroke-width:8;stroke-linecap:round;stroke-linejoin:round;stroke-miterlimit:4.6237;}
	.st1{fill:none;stroke:#2C3E50;stroke-width:8.0013;stroke-linecap:round;stroke-linejoin:round;stroke-miterlimit:5.1152;}
	.st2{fill:none;stroke:#2C3E50;stroke-width:8;stroke-miterlimit:4.6237;}
	.st3{fill:#2C3E50;stroke:#2C3E50;stroke-width:7.9996;stroke-linecap:round;stroke-linejoin:round;stroke-miterlimit:4.4263;}
</style>
<sodipodi:namedview  bordercolor="#666666" borderopacity="1.0" fit-margin-bottom="5" fit-margin-left="5" fit-margin-right="5" fit-margin-top="5" id="base" inkscape:current-layer="layer1" inkscape:cx="26.370489" inkscape:cy="314.7237" inkscape:document-units="px" inkscape:pageopacity="0.0" inkscape:pageshadow="2" inkscape:window-height="1017" inkscape:window-maximized="1" inkscape:window-width="1920" inkscape:window-x="-8" inkscape:window-y="-8" inkscape:zoom="0.78870185" pagecolor="#ffffff" showgrid="false">
	</sodipodi:namedview>
<g id="layer1" transform="translate(-134.3853,-405.98549)" inkscape:groupmode="layer" inkscape:label="Ebene 1">
	<g id="g3850" transform="matrix(1.1559288,0,0,1.1559288,-90.351533,-87.211688)">
		<path id="path3834" inkscape:connector-curvature="0" sodipodi:nodetypes="cc" class="st0" d="M354.9,671.6l-20.1,101.6"/>
		
			<path id="path3836" sodipodi:cx="226.95522" sodipodi:cy="759.47583" sodipodi:rx="29.161844" sodipodi:ry="29.161844" sodipodi:type="arc" class="st1" d="
			M416.3,755.7c0,17.8,14.4,32.3,32.3,32.3c17.8,0,32.3-14.4,32.3-32.3s-14.4-32.3-32.3-32.3C430.7,723.5,416.3,737.9,416.3,755.7z"
			/>
		
			<path id="path3838" sodipodi:cx="226.95522" sodipodi:cy="759.47583" sodipodi:rx="29.161844" sodipodi:ry="29.161844" sodipodi:type="arc" class="st1" d="
			M226,727c0,17.8,14.4,32.3,32.3,32.3c17.8,0,32.3-14.4,32.3-32.3c0-17.8-14.4-32.3-32.3-32.3C240.5,694.7,226,709.2,226,727z"/>
		<path id="path3840_1_" inkscape:connector-curvature="0" sodipodi:nodetypes="cc" class="st0" d="M440.4,583.8
			c100.9,110.6,74,243.8,7.7,204.2"/>
		<path id="path3842_1_" inkscape:connector-curvature="0" sodipodi:nodetypes="cc" class="st0" d="M297.7,571.4
			c-124,86.3-116.1,212.6-40,188.3"/>
		<path id="path3827" inkscape:connector-curvature="0" sodipodi:nodetypes="sssss" class="st2" d="M343.7,621.6
			c42,18,81.5-1.5,105.8-58.5c24.3-57,12.8-102.8-29.2-120.8s-108.9-7.4-121.9,53.2C285.2,557.2,302.8,604.1,343.7,621.6z"/>
		<path id="path3830" inkscape:connector-curvature="0" sodipodi:nodetypes="ccc" class="st0" d="M455.6,539
			c-44.4-25.5-61.6-59.7-68.7-103.8c-17.1,47.8-46.5,76.1-89.8,82.7"/>
		
			<path id="path3848" sodipodi:cx="338.53098" sodipodi:cy="514.13599" sodipodi:rx="5.0716248" sodipodi:ry="8.2413902" sodipodi:type="arc" class="st3" d="
			M388.8,545.6c-1.3,4.2-4.4,6.9-7,6.1c-2.6-0.8-3.6-4.8-2.3-9c1.3-4.2,4.4-6.9,7-6.1C389.1,537.4,390.1,541.4,388.8,545.6z"/>
		
			<path id="path3844" sodipodi:cx="338.53098" sodipodi:cy="514.13599" sodipodi:rx="5.0716248" sodipodi:ry="8.2413902" sodipodi:type="arc" class="st3" d="
			M350.6,537.9c-1.3,4.2-4.4,6.9-7,6.1c-2.6-0.8-3.6-4.8-2.3-9c1.3-4.2,4.4-6.9,7-6.1S351.8,533.7,350.6,537.9z"/>
		<path class="st0" d="M416.3,755.7c0-17.8,14.4-32.3,32.3-32.3c1.9,0,3.8,0.2,5.7,0.5l11.1-60.8l0,0c-28.3-1-52.4-6.2-109.4,7
			c-27.1-22.2-55.5-35.4-84.2-43.5l-10.4,68.2c16.3,1.6,29.1,15.3,29.1,32.1c0,4.9-1.1,9.5-3,13.7c19.2,10.3,28.8,21.1,47.4,34.7
			c27.8-8.1,55.2-16.7,81.5-16.9C416.3,757.6,416.3,756.7,416.3,755.7z"/>
	</g>
</g>
</svg>
